<svg width="110" height="11" viewBox="0 0 110 11" fill="none" xmlns="http://www.w3.org/2000/svg">
<g clip-path="url(#clip0)">
<path d="M8.47831 7.63895C8.47831 9.58981 6.95221 10.53 5.49879 10.7415C4.99009 10.7885 4.48139 10.812 3.99692 10.812H0V0.235107H3.90002C4.36027 0.235107 4.84475 0.235107 5.305 0.30562C7.07333 0.517159 8.04228 1.52784 8.04228 2.9381C8.04228 4.0193 7.43669 4.74793 6.34662 5.124C7.77582 5.42955 8.47831 6.27571 8.47831 7.63895ZM2.18014 4.55989H3.82735C4.09381 4.55989 4.36027 4.53639 4.60251 4.51289C5.40189 4.39536 5.78947 3.94878 5.78947 3.19665C5.78947 2.44451 5.28078 2.02143 4.55406 1.92742C4.2876 1.88041 4.02114 1.88041 3.75468 1.88041H2.18014V4.55989ZM6.17705 7.63895C6.17705 6.65177 5.57146 6.2522 4.77208 6.15818C4.50562 6.13468 4.26338 6.11118 3.99692 6.11118H2.18014V9.09622H4.06959C4.31183 9.09622 4.57829 9.09622 4.7963 9.07271C5.57146 9.04921 6.20128 8.41459 6.17705 7.63895C6.17705 7.66246 6.17705 7.66246 6.17705 7.63895Z" fill="black"/>
<path d="M18.8706 7.59177L17.7806 10.7883H15.4551L19.3793 0.211426H22.1166L25.9682 10.7883H23.5943L22.5284 7.59177H18.8706ZM19.4278 5.92296H21.9955L20.7116 2.02125L19.4278 5.92296Z" fill="black"/>
<path d="M41.4225 10.7883H33.5498V0.211426H35.7299V8.79049H41.4225V10.7883Z" fill="black"/>
<path d="M72.8652 10.7884L68.3838 2.74995C68.4565 3.90166 68.4565 5.10038 68.4565 5.99354V10.7649H66.2764V0.187988H69.159L73.7373 8.36748C73.6646 7.23927 73.6646 5.94654 73.6646 5.05337V0.211493H75.8205L75.8447 10.7884H72.8652Z" fill="black"/>
<path d="M93.9157 3.64316L93.94 3.78419H91.7598L91.7356 3.64316C91.4691 2.35043 90.6455 1.57479 89.1921 1.57479C87.448 1.57479 86.261 3.03205 86.261 5.42949C86.261 8.06197 87.4964 9.42521 89.1679 9.42521C90.5971 9.42521 91.4207 8.60256 91.6872 7.28632L91.7114 7.1453H93.8673L93.8431 7.28632C93.6008 9.54274 91.8325 11 89.0468 11C86.0188 11 83.9355 8.93162 83.9355 5.57051C83.9355 2.09188 86.1884 0 89.2163 0C92.1716 0 93.6977 1.57479 93.9157 3.64316Z" fill="black"/>
<path d="M110 10.7883H102.127V0.211426H110V1.88023H104.307V4.65373H109.443V6.32254H104.307V9.11954H110V10.7883Z" fill="black"/>
<path d="M53.5825 0.211426L47.3086 10.7883H59.8807L53.5825 0.211426Z" fill="black"/>
</g>
<defs>
<clipPath id="clip0">
<rect width="110" height="11" fill="white"/>
</clipPath>
</defs>
</svg>
