<svg width="197" height="20" viewBox="0 0 197 20" fill="none" xmlns="http://www.w3.org/2000/svg">
<g clip-path="url(#clip0)">
<path d="M15.1839 13.8888C15.1839 17.4358 12.4508 19.1452 9.84783 19.5298C8.9368 19.6153 8.02577 19.658 7.15811 19.658H0V0.427246H6.98458C7.80885 0.427246 8.6765 0.427246 9.50077 0.555451C12.6677 0.940067 14.403 2.77767 14.403 5.34178C14.403 7.30759 13.3184 8.63237 11.3662 9.31614C13.9258 9.87169 15.1839 11.4102 15.1839 13.8888ZM3.90443 8.29049H6.85444C7.33165 8.29049 7.80885 8.24776 8.24268 8.20502C9.6743 7.99135 10.3684 7.17938 10.3684 5.81186C10.3684 4.44434 9.45739 3.67511 8.15591 3.50417C7.6787 3.4187 7.2015 3.4187 6.72429 3.4187H3.90443V8.29049ZM11.0625 13.8888C11.0625 12.0939 9.97798 11.3674 8.54636 11.1965C8.06915 11.1537 7.63532 11.111 7.15811 11.111H3.90443V16.5384H7.28826C7.72209 16.5384 8.1993 16.5384 8.58974 16.4956C9.97798 16.4529 11.1059 15.299 11.0625 13.8888C11.0625 13.9315 11.0625 13.9315 11.0625 13.8888Z" fill="black"/>
<path d="M33.7947 13.8033L31.8425 19.6153H27.6777L34.7057 0.384521H39.6079L46.5058 19.6153H42.2543L40.3454 13.8033H33.7947ZM34.7925 10.7691H39.391L37.0917 3.67512L34.7925 10.7691Z" fill="black"/>
<path d="M74.1843 19.6153H60.085V0.384521H63.9894V15.9828H74.1843V19.6153Z" fill="black"/>
<path d="M130.494 19.6153L122.469 4.99992C122.599 7.09393 122.599 9.27342 122.599 10.8974V19.5726H118.694V0.341797H123.857L132.056 15.2136C131.926 13.1623 131.926 10.8119 131.926 9.18795V0.384532H135.787L135.83 19.6153H130.494Z" fill="black"/>
<path d="M168.194 6.62393L168.237 6.88034H164.333L164.289 6.62393C163.812 4.2735 162.337 2.86325 159.734 2.86325C156.611 2.86325 154.485 5.51282 154.485 9.87179C154.485 14.6581 156.698 17.1368 159.691 17.1368C162.251 17.1368 163.726 15.641 164.203 13.2479L164.246 12.9915H168.107L168.064 13.2479C167.63 17.3504 164.463 20 159.474 20C154.051 20 150.32 16.2393 150.32 10.1282C150.32 3.80342 154.355 0 159.778 0C165.07 0 167.803 2.86325 168.194 6.62393Z" fill="black"/>
<path d="M197 19.6153H182.9V0.384521H197V3.41871H186.805V8.46144H196.002V11.4956H186.805V16.5811H197V19.6153Z" fill="black"/>
<path d="M95.9617 0.384521L84.7256 19.6153H107.241L95.9617 0.384521Z" fill="black"/>
</g>
<defs>
<clipPath id="clip0">
<rect width="197" height="20" fill="white"/>
</clipPath>
</defs>
</svg>
