<svg width="1440" height="30" viewBox="0 0 1440 30" fill="none" xmlns="http://www.w3.org/2000/svg">
<path d="M-41.36 22.52H-40.36V21.52H-41.36V22.52ZM-41.36 28H-42.36V29H-41.36V28ZM-35.08 28V29H-34.08V28H-35.08ZM-35.08 22.52V21.52H-36.08V22.52H-35.08ZM-30.96 22.52V23.52H-29.96V22.52H-30.96ZM-30.96 17.64H-29.96V16.64H-30.96V17.64ZM-35.08 17.64H-36.08V18.64H-35.08V17.64ZM-35.08 2.12H-34.08V1.12H-35.08V2.12ZM-42 2.12V1.12L-42.4621 1.12L-42.7616 1.47193L-42 2.12ZM-54.56 16.88L-55.3216 16.2319L-55.56 16.5121V16.88H-54.56ZM-54.56 22.52H-55.56V23.52H-54.56V22.52ZM-41.36 17.64V18.64H-40.36V17.64H-41.36ZM-48.64 17.64L-49.3988 16.9886L-50.8164 18.64H-48.64V17.64ZM-41.36 9.16H-40.36V6.45996L-42.1187 8.50862L-41.36 9.16ZM-42.36 22.52L-42.36 28H-40.36L-40.36 22.52H-42.36ZM-41.36 29H-35.08V27H-41.36V29ZM-34.08 28V22.52H-36.08V28H-34.08ZM-35.08 23.52H-30.96V21.52H-35.08V23.52ZM-29.96 22.52V17.64H-31.96V22.52H-29.96ZM-30.96 16.64H-35.08V18.64H-30.96V16.64ZM-34.08 17.64V2.12H-36.08V17.64H-34.08ZM-35.08 1.12L-42 1.12V3.12L-35.08 3.12V1.12ZM-42.7616 1.47193L-55.3216 16.2319L-53.7984 17.5281L-41.2384 2.76807L-42.7616 1.47193ZM-55.56 16.88L-55.56 22.52H-53.56L-53.56 16.88H-55.56ZM-54.56 23.52L-41.36 23.52V21.52L-54.56 21.52V23.52ZM-41.36 16.64L-48.64 16.64V18.64L-41.36 18.64V16.64ZM-47.8812 18.2914L-40.6012 9.81138L-42.1187 8.50862L-49.3988 16.9886L-47.8812 18.2914ZM-42.36 9.16V17.64H-40.36V9.16H-42.36ZM-24.5072 4.36L-23.8356 5.10101L-23.8301 5.09593L-24.5072 4.36ZM-9.06718 4.36L-8.3889 3.6252L-8.3895 3.62464L-9.06718 4.36ZM-12.7472 20.68L-11.8361 21.0922L-11.8344 21.0884L-12.7472 20.68ZM-20.8272 20.68L-21.744 21.0796L-21.7383 21.0922L-20.8272 20.68ZM-16.8272 0.519998C-20.0114 0.519998 -22.981 1.59705 -25.1842 3.62407L-23.8301 5.09593C-22.0334 3.44295 -19.563 2.52 -16.8272 2.52V0.519998ZM-25.1787 3.61901C-28.0182 6.19226 -29.3872 10.189 -29.3872 15.08H-27.3872C-27.3872 10.531 -26.1162 7.16773 -23.8357 5.10099L-25.1787 3.61901ZM-29.3872 15.08C-29.3872 19.4286 -28.232 23.063 -26.0309 25.6265C-23.8144 28.2078 -20.6241 29.6 -16.7872 29.6V27.6C-20.1103 27.6 -22.72 26.4122 -24.5135 24.3235C-26.3223 22.217 -27.3872 19.0914 -27.3872 15.08H-29.3872ZM-16.7872 29.6C-12.986 29.6 -9.80051 28.1951 -7.5779 25.6415C-5.36808 23.1027 -4.18719 19.5195 -4.18719 15.28H-6.18719C-6.18719 19.1605 -7.2663 22.2373 -9.08648 24.3285C-10.8939 26.4049 -13.5084 27.6 -16.7872 27.6V29.6ZM-4.18719 15.28C-4.18719 10.1515 -5.51468 6.27833 -8.3889 3.6252L-9.74546 5.0948C-7.4197 7.24166 -6.18719 10.4885 -6.18719 15.28H-4.18719ZM-8.3895 3.62464C-10.6367 1.55375 -13.5284 0.519998 -16.8272 0.519998V2.52C-13.9659 2.52 -11.5777 3.40625 -9.74487 5.09536L-8.3895 3.62464ZM-16.7872 7.64C-15.644 7.64 -14.6595 8.22502 -13.9134 9.46163C-13.1485 10.7293 -12.6672 12.6509 -12.6672 15.12H-10.6672C-10.6672 12.4291 -11.1859 10.1107 -12.201 8.42837C-13.2348 6.71497 -14.8104 5.64 -16.7872 5.64V7.64ZM-12.6672 15.12C-12.6672 16.9277 -13.0481 18.9038 -13.66 20.2716L-11.8344 21.0884C-11.0863 19.4162 -10.6672 17.1523 -10.6672 15.12H-12.6672ZM-13.6583 20.2678C-14.2795 21.641 -15.5531 22.48 -16.7872 22.48V24.48C-14.6613 24.48 -12.7349 23.079 -11.8361 21.0922L-13.6583 20.2678ZM-16.7872 22.48C-18.0213 22.48 -19.2949 21.641 -19.9161 20.2678L-21.7383 21.0922C-20.8395 23.079 -18.9131 24.48 -16.7872 24.48V22.48ZM-19.9105 20.2804C-20.5271 18.8658 -20.9072 16.9253 -20.9072 15.04L-22.9072 15.04C-22.9072 17.1547 -22.4873 19.3742 -21.7439 21.0796L-19.9105 20.2804ZM-20.9072 15.04C-20.9072 12.6381 -20.4186 10.7357 -19.648 9.47004C-18.8924 8.22892 -17.9042 7.64 -16.7872 7.64V5.64C-18.7501 5.64 -20.322 6.73108 -21.3563 8.42996C-22.3758 10.1043 -22.9072 12.4019 -22.9072 15.04L-20.9072 15.04ZM10.9056 22.52H11.9056V21.52H10.9056V22.52ZM10.9056 28H9.90562V29H10.9056V28ZM17.1856 28V29H18.1856V28H17.1856ZM17.1856 22.52V21.52H16.1856V22.52H17.1856ZM21.3056 22.52V23.52L22.3056 23.52V22.52L21.3056 22.52ZM21.3056 17.64L22.3056 17.64V16.64L21.3056 16.64V17.64ZM17.1856 17.64H16.1856V18.64H17.1856V17.64ZM17.1856 2.12H18.1856V1.12H17.1856V2.12ZM10.2656 2.12V1.12H9.80352L9.50404 1.47193L10.2656 2.12ZM-2.29438 16.88L-3.05596 16.2319L-3.29438 16.5121V16.88H-2.29438ZM-2.29438 22.52H-3.29438V23.52H-2.29438V22.52ZM10.9056 17.64V18.64H11.9056V17.64H10.9056ZM3.62563 17.64L2.86687 16.9886L1.44918 18.64H3.62563V17.64ZM10.9056 9.16H11.9056V6.45996L10.1469 8.50862L10.9056 9.16ZM9.90562 22.52V28H11.9056V22.52H9.90562ZM10.9056 29H17.1856V27H10.9056V29ZM18.1856 28V22.52H16.1856V28H18.1856ZM17.1856 23.52H21.3056V21.52H17.1856V23.52ZM22.3056 22.52V17.64L20.3056 17.64V22.52L22.3056 22.52ZM21.3056 16.64H17.1856V18.64H21.3056V16.64ZM18.1856 17.64V2.12H16.1856V17.64H18.1856ZM17.1856 1.12L10.2656 1.12V3.12L17.1856 3.12V1.12ZM9.50404 1.47193L-3.05596 16.2319L-1.53279 17.5281L11.0272 2.76807L9.50404 1.47193ZM-3.29438 16.88L-3.29438 22.52H-1.29438L-1.29438 16.88H-3.29438ZM-2.29438 23.52L10.9056 23.52V21.52L-2.29438 21.52V23.52ZM10.9056 16.64H3.62563V18.64H10.9056V16.64ZM4.38438 18.2914L11.6644 9.81138L10.1469 8.50862L2.86687 16.9886L4.38438 18.2914ZM9.90562 9.16V17.64H11.9056V9.16H9.90562ZM49.0306 22.52H50.0306V21.52H49.0306V22.52ZM49.0306 28H48.0306V29H49.0306V28ZM55.3106 28V29H56.3106V28H55.3106ZM55.3106 22.52V21.52H54.3106V22.52H55.3106ZM59.4306 22.52V23.52H60.4306V22.52H59.4306ZM59.4306 17.64H60.4306V16.64H59.4306V17.64ZM55.3106 17.64H54.3106V18.64H55.3106V17.64ZM55.3106 2.12H56.3106V1.12H55.3106V2.12ZM48.3906 2.12V1.12H47.9285L47.629 1.47193L48.3906 2.12ZM35.8306 16.88L35.069 16.2319L34.8306 16.5121V16.88H35.8306ZM35.8306 22.52H34.8306V23.52H35.8306V22.52ZM49.0306 17.64V18.64H50.0306V17.64H49.0306ZM41.7506 17.64L40.9919 16.9886L39.5742 18.64H41.7506V17.64ZM49.0306 9.16H50.0306V6.45996L48.2719 8.50862L49.0306 9.16ZM48.0306 22.52V28H50.0306V22.52H48.0306ZM49.0306 29H55.3106V27H49.0306V29ZM56.3106 28V22.52H54.3106V28H56.3106ZM55.3106 23.52H59.4306V21.52H55.3106V23.52ZM60.4306 22.52V17.64H58.4306V22.52H60.4306ZM59.4306 16.64H55.3106V18.64H59.4306V16.64ZM56.3106 17.64V2.12H54.3106V17.64H56.3106ZM55.3106 1.12L48.3906 1.12V3.12L55.3106 3.12V1.12ZM47.629 1.47193L35.069 16.2319L36.5922 17.5281L49.1522 2.76807L47.629 1.47193ZM34.8306 16.88V22.52H36.8306V16.88H34.8306ZM35.8306 23.52L49.0306 23.52V21.52L35.8306 21.52V23.52ZM49.0306 16.64L41.7506 16.64V18.64L49.0306 18.64V16.64ZM42.5094 18.2914L49.7894 9.81138L48.2719 8.50862L40.9919 16.9886L42.5094 18.2914ZM48.0306 9.16V17.64H50.0306V9.16L48.0306 9.16ZM65.8834 4.36L66.555 5.10101L66.5605 5.09593L65.8834 4.36ZM81.3234 4.36L82.0017 3.6252L82.0011 3.62464L81.3234 4.36ZM77.6434 20.68L78.5546 21.0922L78.5563 21.0884L77.6434 20.68ZM69.5634 20.68L68.6467 21.0796L68.6523 21.0922L69.5634 20.68ZM73.5634 0.519998C70.3792 0.519998 67.4097 1.59705 65.2064 3.62407L66.5605 5.09593C68.3572 3.44295 70.8276 2.52 73.5634 2.52V0.519998ZM65.2119 3.61901C62.3725 6.19226 61.0034 10.189 61.0034 15.08H63.0034C63.0034 10.531 64.2744 7.16773 66.555 5.10099L65.2119 3.61901ZM61.0034 15.08C61.0034 19.4286 62.1586 23.063 64.3598 25.6265C66.5763 28.2078 69.7666 29.6 73.6034 29.6V27.6C70.2803 27.6 67.6706 26.4122 65.8771 24.3235C64.0683 22.217 63.0034 19.0914 63.0034 15.08H61.0034ZM73.6034 29.6C77.4046 29.6 80.5901 28.1951 82.8127 25.6415C85.0226 23.1027 86.2034 19.5195 86.2034 15.28H84.2034C84.2034 19.1605 83.1243 22.2373 81.3042 24.3285C79.4968 26.4049 76.8822 27.6 73.6034 27.6V29.6ZM86.2034 15.28C86.2034 10.1515 84.8759 6.27833 82.0017 3.6252L80.6452 5.0948C82.9709 7.24166 84.2034 10.4885 84.2034 15.28H86.2034ZM82.0011 3.62464C79.754 1.55375 76.8622 0.519998 73.5634 0.519998V2.52C76.4247 2.52 78.8129 3.40625 80.6458 5.09536L82.0011 3.62464ZM73.6034 7.64C74.7467 7.64 75.7311 8.22502 76.4772 9.46163C77.2421 10.7293 77.7234 12.6509 77.7234 15.12H79.7234C79.7234 12.4291 79.2047 10.1107 78.1897 8.42837C77.1558 6.71497 75.5802 5.64 73.6034 5.64V7.64ZM77.7234 15.12C77.7234 16.9277 77.3426 18.9038 76.7306 20.2716L78.5563 21.0884C79.3043 19.4162 79.7234 17.1523 79.7234 15.12H77.7234ZM76.7323 20.2678C76.1111 21.641 74.8375 22.48 73.6034 22.48V24.48C75.7294 24.48 77.6557 23.079 78.5546 21.0922L76.7323 20.2678ZM73.6034 22.48C72.3694 22.48 71.0957 21.641 70.4745 20.2678L68.6523 21.0922C69.5511 23.079 71.4775 24.48 73.6034 24.48V22.48ZM70.4801 20.2804C69.8635 18.8658 69.4834 16.9253 69.4834 15.04H67.4834C67.4834 17.1547 67.9034 19.3742 68.6467 21.0796L70.4801 20.2804ZM69.4834 15.04C69.4834 12.6381 69.972 10.7357 70.7426 9.47004C71.4982 8.22892 72.4864 7.64 73.6034 7.64V5.64C71.6405 5.64 70.0686 6.73108 69.0343 8.42996C68.0149 10.1043 67.4834 12.4019 67.4834 15.04H69.4834ZM101.296 22.52H102.296V21.52H101.296V22.52ZM101.296 28H100.296V29H101.296V28ZM107.576 28V29H108.576V28H107.576ZM107.576 22.52V21.52H106.576V22.52H107.576ZM111.696 22.52V23.52H112.696V22.52H111.696ZM111.696 17.64H112.696V16.64H111.696V17.64ZM107.576 17.64H106.576V18.64H107.576V17.64ZM107.576 2.12H108.576V1.12H107.576V2.12ZM100.656 2.12V1.12H100.194L99.8947 1.47193L100.656 2.12ZM88.0963 16.88L87.3347 16.2319L87.0963 16.5121V16.88L88.0963 16.88ZM88.0963 22.52L87.0963 22.52V23.52L88.0963 23.52V22.52ZM101.296 17.64V18.64H102.296V17.64H101.296ZM94.0163 17.64L93.2575 16.9886L91.8398 18.64H94.0163V17.64ZM101.296 9.16H102.296V6.45996L100.538 8.50862L101.296 9.16ZM100.296 22.52V28H102.296V22.52H100.296ZM101.296 29H107.576V27H101.296V29ZM108.576 28V22.52H106.576V28H108.576ZM107.576 23.52L111.696 23.52V21.52L107.576 21.52V23.52ZM112.696 22.52V17.64H110.696V22.52H112.696ZM111.696 16.64L107.576 16.64V18.64L111.696 18.64V16.64ZM108.576 17.64V2.12L106.576 2.12V17.64H108.576ZM107.576 1.12L100.656 1.12V3.12L107.576 3.12V1.12ZM99.8947 1.47193L87.3347 16.2319L88.8578 17.5281L101.418 2.76807L99.8947 1.47193ZM87.0963 16.88V22.52L89.0963 22.52V16.88L87.0963 16.88ZM88.0963 23.52H101.296V21.52H88.0963V23.52ZM101.296 16.64H94.0163V18.64H101.296V16.64ZM94.775 18.2914L102.055 9.81138L100.538 8.50862L93.2575 16.9886L94.775 18.2914ZM100.296 9.16V17.64H102.296V9.16H100.296ZM139.421 22.52H140.421V21.52H139.421V22.52ZM139.421 28H138.421V29H139.421V28ZM145.701 28V29H146.701V28H145.701ZM145.701 22.52V21.52H144.701V22.52H145.701ZM149.821 22.52V23.52H150.821V22.52H149.821ZM149.821 17.64H150.821V16.64H149.821V17.64ZM145.701 17.64H144.701V18.64H145.701V17.64ZM145.701 2.12H146.701V1.12H145.701V2.12ZM138.781 2.12V1.12H138.319L138.02 1.47193L138.781 2.12ZM126.221 16.88L125.46 16.2319L125.221 16.5121V16.88H126.221ZM126.221 22.52H125.221V23.52H126.221V22.52ZM139.421 17.64V18.64H140.421V17.64H139.421ZM132.141 17.64L131.382 16.9886L129.965 18.64L132.141 18.64V17.64ZM139.421 9.16H140.421V6.45996L138.663 8.50862L139.421 9.16ZM138.421 22.52V28H140.421V22.52H138.421ZM139.421 29H145.701V27H139.421V29ZM146.701 28V22.52H144.701V28H146.701ZM145.701 23.52H149.821V21.52H145.701V23.52ZM150.821 22.52V17.64H148.821V22.52H150.821ZM149.821 16.64H145.701V18.64H149.821V16.64ZM146.701 17.64V2.12L144.701 2.12V17.64H146.701ZM145.701 1.12L138.781 1.12V3.12L145.701 3.12V1.12ZM138.02 1.47193L125.46 16.2319L126.983 17.5281L139.543 2.76807L138.02 1.47193ZM125.221 16.88V22.52H127.221V16.88H125.221ZM126.221 23.52L139.421 23.52V21.52L126.221 21.52V23.52ZM139.421 16.64H132.141V18.64H139.421V16.64ZM132.9 18.2914L140.18 9.81138L138.663 8.50862L131.382 16.9886L132.9 18.2914ZM138.421 9.16V17.64H140.421V9.16H138.421ZM156.274 4.36L156.946 5.10101L156.951 5.09593L156.274 4.36ZM171.714 4.36L172.392 3.6252L172.392 3.62464L171.714 4.36ZM168.034 20.68L168.945 21.0922L168.947 21.0884L168.034 20.68ZM159.954 20.68L159.037 21.0796L159.043 21.0922L159.954 20.68ZM163.954 0.519998C160.77 0.519998 157.8 1.59705 155.597 3.62407L156.951 5.09593C158.748 3.44295 161.218 2.52 163.954 2.52V0.519998ZM155.603 3.61901C152.763 6.19226 151.394 10.189 151.394 15.08H153.394C153.394 10.531 154.665 7.16773 156.946 5.10099L155.603 3.61901ZM151.394 15.08C151.394 19.4286 152.549 23.063 154.75 25.6265C156.967 28.2078 160.157 29.6 163.994 29.6V27.6C160.671 27.6 158.061 26.4122 156.268 24.3235C154.459 22.217 153.394 19.0914 153.394 15.08H151.394ZM163.994 29.6C167.795 29.6 170.981 28.1951 173.203 25.6415C175.413 23.1027 176.594 19.5195 176.594 15.28L174.594 15.28C174.594 19.1605 173.515 22.2373 171.695 24.3285C169.887 26.4049 167.273 27.6 163.994 27.6V29.6ZM176.594 15.28C176.594 10.1515 175.267 6.27833 172.392 3.6252L171.036 5.0948C173.362 7.24166 174.594 10.4885 174.594 15.28L176.594 15.28ZM172.392 3.62464C170.145 1.55375 167.253 0.519998 163.954 0.519998V2.52C166.815 2.52 169.204 3.40625 171.036 5.09536L172.392 3.62464ZM163.994 7.64C165.137 7.64 166.122 8.22502 166.868 9.46163C167.633 10.7293 168.114 12.6509 168.114 15.12H170.114C170.114 12.4291 169.595 10.1107 168.58 8.42837C167.546 6.71497 165.971 5.64 163.994 5.64V7.64ZM168.114 15.12C168.114 16.9277 167.733 18.9038 167.121 20.2716L168.947 21.0884C169.695 19.4162 170.114 17.1523 170.114 15.12H168.114ZM167.123 20.2678C166.502 21.641 165.228 22.48 163.994 22.48V24.48C166.12 24.48 168.046 23.079 168.945 21.0922L167.123 20.2678ZM163.994 22.48C162.76 22.48 161.486 21.641 160.865 20.2678L159.043 21.0922C159.942 23.079 161.868 24.48 163.994 24.48V22.48ZM160.871 20.2804C160.254 18.8658 159.874 16.9253 159.874 15.04H157.874C157.874 17.1547 158.294 19.3742 159.037 21.0796L160.871 20.2804ZM159.874 15.04C159.874 12.6381 160.363 10.7357 161.133 9.47004C161.889 8.22892 162.877 7.64 163.994 7.64V5.64C162.031 5.64 160.459 6.73108 159.425 8.42996C158.405 10.1043 157.874 12.4019 157.874 15.04H159.874ZM191.687 22.52H192.687V21.52H191.687V22.52ZM191.687 28H190.687V29H191.687V28ZM197.967 28V29L198.967 29V28L197.967 28ZM197.967 22.52V21.52H196.967V22.52H197.967ZM202.087 22.52V23.52H203.087V22.52H202.087ZM202.087 17.64H203.087V16.64H202.087V17.64ZM197.967 17.64H196.967V18.64H197.967V17.64ZM197.967 2.12H198.967V1.12H197.967V2.12ZM191.047 2.12V1.12H190.585L190.285 1.47193L191.047 2.12ZM178.487 16.88L177.725 16.2319L177.487 16.5121V16.88H178.487ZM178.487 22.52H177.487V23.52H178.487V22.52ZM191.687 17.64V18.64H192.687V17.64H191.687ZM184.407 17.64L183.648 16.9886L182.23 18.64H184.407V17.64ZM191.687 9.16L192.687 9.16V6.45996L190.928 8.50862L191.687 9.16ZM190.687 22.52V28H192.687V22.52H190.687ZM191.687 29H197.967V27H191.687V29ZM198.967 28V22.52L196.967 22.52V28L198.967 28ZM197.967 23.52L202.087 23.52V21.52L197.967 21.52V23.52ZM203.087 22.52V17.64H201.087V22.52H203.087ZM202.087 16.64L197.967 16.64V18.64L202.087 18.64V16.64ZM198.967 17.64V2.12H196.967V17.64L198.967 17.64ZM197.967 1.12L191.047 1.12V3.12L197.967 3.12V1.12ZM190.285 1.47193L177.725 16.2319L179.248 17.5281L191.808 2.76807L190.285 1.47193ZM177.487 16.88V22.52H179.487V16.88H177.487ZM178.487 23.52H191.687V21.52H178.487V23.52ZM191.687 16.64H184.407V18.64H191.687V16.64ZM185.166 18.2914L192.446 9.81138L190.928 8.50862L183.648 16.9886L185.166 18.2914ZM190.687 9.16V17.64H192.687V9.16L190.687 9.16ZM229.812 22.52H230.812V21.52H229.812V22.52ZM229.812 28H228.812V29H229.812V28ZM236.092 28V29H237.092V28H236.092ZM236.092 22.52V21.52H235.092V22.52H236.092ZM240.212 22.52V23.52H241.212V22.52H240.212ZM240.212 17.64H241.212V16.64H240.212V17.64ZM236.092 17.64H235.092V18.64H236.092V17.64ZM236.092 2.12H237.092V1.12H236.092V2.12ZM229.172 2.12V1.12H228.71L228.41 1.47193L229.172 2.12ZM216.612 16.88L215.85 16.2319L215.612 16.5121V16.88H216.612ZM216.612 22.52H215.612V23.52H216.612V22.52ZM229.812 17.64V18.64H230.812V17.64H229.812ZM222.532 17.64L221.773 16.9886L220.355 18.64H222.532V17.64ZM229.812 9.16H230.812V6.45996L229.053 8.50862L229.812 9.16ZM228.812 22.52V28H230.812V22.52H228.812ZM229.812 29H236.092V27H229.812V29ZM237.092 28V22.52H235.092V28H237.092ZM236.092 23.52H240.212V21.52H236.092V23.52ZM241.212 22.52V17.64H239.212V22.52H241.212ZM240.212 16.64H236.092V18.64H240.212V16.64ZM237.092 17.64V2.12H235.092V17.64H237.092ZM236.092 1.12L229.172 1.12V3.12L236.092 3.12V1.12ZM228.41 1.47193L215.85 16.2319L217.373 17.5281L229.933 2.76807L228.41 1.47193ZM215.612 16.88V22.52H217.612V16.88H215.612ZM216.612 23.52L229.812 23.52V21.52L216.612 21.52V23.52ZM229.812 16.64H222.532V18.64H229.812V16.64ZM223.291 18.2914L230.571 9.81138L229.053 8.50862L221.773 16.9886L223.291 18.2914ZM228.812 9.16V17.64H230.812V9.16H228.812ZM246.665 4.36L247.336 5.10101L247.342 5.09593L246.665 4.36ZM262.105 4.36L262.783 3.6252L262.782 3.62464L262.105 4.36ZM258.425 20.68L259.336 21.0922L259.337 21.0884L258.425 20.68ZM250.345 20.68L249.428 21.0796L249.434 21.0922L250.345 20.68ZM254.345 0.519998C251.16 0.519998 248.191 1.59705 245.988 3.62407L247.342 5.09593C249.138 3.44295 251.609 2.52 254.345 2.52V0.519998ZM245.993 3.61901C243.154 6.19226 241.785 10.189 241.785 15.08L243.785 15.08C243.785 10.531 245.056 7.16773 247.336 5.10099L245.993 3.61901ZM241.785 15.08C241.785 19.4286 242.94 23.063 245.141 25.6265C247.358 28.2078 250.548 29.6 254.385 29.6V27.6C251.062 27.6 248.452 26.4122 246.658 24.3235C244.85 22.217 243.785 19.0914 243.785 15.08L241.785 15.08ZM254.385 29.6C258.186 29.6 261.371 28.1951 263.594 25.6415C265.804 23.1027 266.985 19.5195 266.985 15.28H264.985C264.985 19.1605 263.906 22.2373 262.085 24.3285C260.278 26.4049 257.664 27.6 254.385 27.6V29.6ZM266.985 15.28C266.985 10.1515 265.657 6.27833 262.783 3.6252L261.426 5.0948C263.752 7.24166 264.985 10.4885 264.985 15.28H266.985ZM262.782 3.62464C260.535 1.55375 257.643 0.519998 254.345 0.519998V2.52C257.206 2.52 259.594 3.40625 261.427 5.09536L262.782 3.62464ZM254.385 7.64C255.528 7.64 256.512 8.22502 257.258 9.46163C258.023 10.7293 258.505 12.6509 258.505 15.12H260.505C260.505 12.4291 259.986 10.1107 258.971 8.42837C257.937 6.71497 256.361 5.64 254.385 5.64V7.64ZM258.505 15.12C258.505 16.9277 258.124 18.9038 257.512 20.2716L259.337 21.0884C260.086 19.4162 260.505 17.1523 260.505 15.12H258.505ZM257.514 20.2678C256.892 21.641 255.619 22.48 254.385 22.48V24.48C256.511 24.48 258.437 23.079 259.336 21.0922L257.514 20.2678ZM254.385 22.48C253.151 22.48 251.877 21.641 251.256 20.2678L249.434 21.0922C250.332 23.079 252.259 24.48 254.385 24.48V22.48ZM251.261 20.2804C250.645 18.8658 250.265 16.9253 250.265 15.04H248.265C248.265 17.1547 248.685 19.3742 249.428 21.0796L251.261 20.2804ZM250.265 15.04C250.265 12.6381 250.753 10.7357 251.524 9.47004C252.279 8.22892 253.268 7.64 254.385 7.64V5.64C252.422 5.64 250.85 6.73108 249.816 8.42996C248.796 10.1043 248.265 12.4019 248.265 15.04H250.265ZM282.078 22.52H283.078V21.52H282.078V22.52ZM282.078 28H281.078V29H282.078V28ZM288.358 28V29H289.358V28H288.358ZM288.358 22.52V21.52H287.358V22.52H288.358ZM292.478 22.52V23.52H293.478V22.52H292.478ZM292.478 17.64H293.478V16.64H292.478V17.64ZM288.358 17.64H287.358V18.64H288.358V17.64ZM288.358 2.12L289.358 2.12V1.12L288.358 1.12V2.12ZM281.438 2.12V1.12H280.975L280.676 1.47193L281.438 2.12ZM268.878 16.88L268.116 16.2319L267.878 16.5121V16.88H268.878ZM268.878 22.52H267.878V23.52H268.878V22.52ZM282.078 17.64V18.64H283.078V17.64H282.078ZM274.797 17.64L274.039 16.9886L272.621 18.64H274.797V17.64ZM282.078 9.16H283.078V6.45996L281.319 8.50862L282.078 9.16ZM281.078 22.52V28H283.078V22.52H281.078ZM282.078 29L288.358 29V27L282.078 27V29ZM289.358 28V22.52H287.358V28H289.358ZM288.358 23.52H292.478V21.52H288.358V23.52ZM293.478 22.52V17.64H291.478V22.52H293.478ZM292.478 16.64H288.358V18.64H292.478V16.64ZM289.358 17.64V2.12L287.358 2.12V17.64H289.358ZM288.358 1.12L281.438 1.12V3.12L288.358 3.12V1.12ZM280.676 1.47193L268.116 16.2319L269.639 17.5281L282.199 2.76807L280.676 1.47193ZM267.878 16.88V22.52H269.878V16.88H267.878ZM268.878 23.52H282.078V21.52H268.878V23.52ZM282.078 16.64H274.797V18.64H282.078V16.64ZM275.556 18.2914L282.836 9.81138L281.319 8.50862L274.039 16.9886L275.556 18.2914ZM281.078 9.16V17.64H283.078V9.16H281.078ZM320.203 22.52H321.203V21.52H320.203V22.52ZM320.203 28H319.203V29H320.203V28ZM326.483 28V29H327.483V28H326.483ZM326.483 22.52V21.52H325.483V22.52H326.483ZM330.603 22.52V23.52L331.603 23.52V22.52L330.603 22.52ZM330.603 17.64L331.603 17.64V16.64L330.603 16.64V17.64ZM326.483 17.64H325.483V18.64H326.483V17.64ZM326.483 2.12H327.483V1.12H326.483V2.12ZM319.562 2.12V1.12H319.1L318.801 1.47193L319.562 2.12ZM307.003 16.88L306.241 16.2319L306.003 16.5121V16.88H307.003ZM307.003 22.52H306.003V23.52H307.003V22.52ZM320.203 17.64V18.64H321.203V17.64H320.203ZM312.922 17.64L312.164 16.9886L310.746 18.64H312.922V17.64ZM320.203 9.16H321.203V6.45996L319.444 8.50862L320.203 9.16ZM319.203 22.52V28H321.203V22.52H319.203ZM320.203 29H326.483V27H320.203V29ZM327.483 28V22.52H325.483V28H327.483ZM326.483 23.52H330.603V21.52H326.483V23.52ZM331.603 22.52V17.64L329.603 17.64V22.52L331.603 22.52ZM330.603 16.64H326.483V18.64H330.603V16.64ZM327.483 17.64V2.12H325.483V17.64H327.483ZM326.483 1.12L319.562 1.12V3.12L326.483 3.12V1.12ZM318.801 1.47193L306.241 16.2319L307.764 17.5281L320.324 2.76807L318.801 1.47193ZM306.003 16.88V22.52H308.003V16.88H306.003ZM307.003 23.52L320.203 23.52V21.52L307.003 21.52V23.52ZM320.203 16.64H312.922V18.64H320.203V16.64ZM313.681 18.2914L320.961 9.81138L319.444 8.50862L312.164 16.9886L313.681 18.2914ZM319.203 9.16V17.64H321.203V9.16H319.203ZM337.055 4.36L337.727 5.10101L337.732 5.09593L337.055 4.36ZM352.495 4.36L353.174 3.6252L353.173 3.62464L352.495 4.36ZM348.815 20.68L349.726 21.0922L349.728 21.0884L348.815 20.68ZM340.735 20.68L339.819 21.0796L339.824 21.0922L340.735 20.68ZM344.735 0.519998C341.551 0.519998 338.582 1.59705 336.378 3.62407L337.732 5.09593C339.529 3.44295 342 2.52 344.735 2.52V0.519998ZM336.384 3.61901C333.544 6.19226 332.175 10.189 332.175 15.08H334.175C334.175 10.531 335.446 7.16773 337.727 5.10099L336.384 3.61901ZM332.175 15.08C332.175 19.4286 333.33 23.063 335.532 25.6265C337.748 28.2078 340.938 29.6 344.775 29.6V27.6C341.452 27.6 338.842 26.4122 337.049 24.3235C335.24 22.217 334.175 19.0914 334.175 15.08H332.175ZM344.775 29.6C348.577 29.6 351.762 28.1951 353.985 25.6415C356.194 23.1027 357.375 19.5195 357.375 15.28H355.375C355.375 19.1605 354.296 22.2373 352.476 24.3285C350.669 26.4049 348.054 27.6 344.775 27.6V29.6ZM357.375 15.28C357.375 10.1515 356.048 6.27833 353.174 3.6252L351.817 5.0948C354.143 7.24166 355.375 10.4885 355.375 15.28H357.375ZM353.173 3.62464C350.926 1.55375 348.034 0.519998 344.735 0.519998V2.52C347.597 2.52 349.985 3.40625 351.818 5.09536L353.173 3.62464ZM344.775 7.64C345.919 7.64 346.903 8.22502 347.649 9.46163C348.414 10.7293 348.895 12.6509 348.895 15.12H350.895C350.895 12.4291 350.377 10.1107 349.362 8.42837C348.328 6.71497 346.752 5.64 344.775 5.64V7.64ZM348.895 15.12C348.895 16.9277 348.514 18.9038 347.902 20.2716L349.728 21.0884C350.476 19.4162 350.895 17.1523 350.895 15.12H348.895ZM347.904 20.2678C347.283 21.641 346.009 22.48 344.775 22.48V24.48C346.901 24.48 348.828 23.079 349.726 21.0922L347.904 20.2678ZM344.775 22.48C343.541 22.48 342.268 21.641 341.646 20.2678L339.824 21.0922C340.723 23.079 342.649 24.48 344.775 24.48V22.48ZM341.652 20.2804C341.035 18.8658 340.655 16.9253 340.655 15.04H338.655C338.655 17.1547 339.075 19.3742 339.819 21.0796L341.652 20.2804ZM340.655 15.04C340.655 12.6381 341.144 10.7357 341.914 9.47004C342.67 8.22892 343.658 7.64 344.775 7.64V5.64C342.812 5.64 341.241 6.73108 340.206 8.42996C339.187 10.1043 338.655 12.4019 338.655 15.04H340.655ZM372.468 22.52H373.468V21.52H372.468V22.52ZM372.468 28H371.468V29H372.468V28ZM378.748 28V29H379.748V28H378.748ZM378.748 22.52V21.52H377.748V22.52H378.748ZM382.868 22.52V23.52H383.868V22.52H382.868ZM382.868 17.64H383.868V16.64H382.868V17.64ZM378.748 17.64H377.748V18.64H378.748V17.64ZM378.748 2.12H379.748V1.12H378.748V2.12ZM371.828 2.12V1.12H371.366L371.067 1.47193L371.828 2.12ZM359.268 16.88L358.507 16.2319L358.268 16.5121V16.88H359.268ZM359.268 22.52H358.268V23.52H359.268V22.52ZM372.468 17.64V18.64H373.468V17.64H372.468ZM365.188 17.64L364.429 16.9886L363.012 18.64H365.188V17.64ZM372.468 9.16H373.468V6.45996L371.709 8.50862L372.468 9.16ZM371.468 22.52V28H373.468V22.52H371.468ZM372.468 29L378.748 29V27L372.468 27V29ZM379.748 28V22.52H377.748V28H379.748ZM378.748 23.52H382.868V21.52H378.748V23.52ZM383.868 22.52V17.64H381.868V22.52H383.868ZM382.868 16.64H378.748V18.64H382.868V16.64ZM379.748 17.64V2.12H377.748V17.64H379.748ZM378.748 1.12L371.828 1.12V3.12L378.748 3.12V1.12ZM371.067 1.47193L358.507 16.2319L360.03 17.5281L372.59 2.76807L371.067 1.47193ZM358.268 16.88V22.52H360.268V16.88H358.268ZM359.268 23.52H372.468V21.52H359.268V23.52ZM372.468 16.64H365.188V18.64H372.468V16.64ZM365.947 18.2914L373.227 9.81138L371.709 8.50862L364.429 16.9886L365.947 18.2914ZM371.468 9.16V17.64H373.468V9.16H371.468ZM410.593 22.52H411.593V21.52H410.593V22.52ZM410.593 28H409.593V29H410.593V28ZM416.873 28V29H417.873V28H416.873ZM416.873 22.52V21.52H415.873V22.52H416.873ZM420.993 22.52V23.52H421.993V22.52H420.993ZM420.993 17.64H421.993V16.64H420.993V17.64ZM416.873 17.64H415.873V18.64H416.873V17.64ZM416.873 2.12H417.873V1.12H416.873V2.12ZM409.953 2.12V1.12H409.491L409.192 1.47193L409.953 2.12ZM397.393 16.88L396.632 16.2319L396.393 16.5121V16.88L397.393 16.88ZM397.393 22.52L396.393 22.52V23.52L397.393 23.52V22.52ZM410.593 17.64V18.64H411.593V17.64H410.593ZM403.313 17.64L402.554 16.9886L401.137 18.64H403.313V17.64ZM410.593 9.16H411.593V6.45996L409.834 8.50862L410.593 9.16ZM409.593 22.52V28H411.593V22.52H409.593ZM410.593 29H416.873V27H410.593V29ZM417.873 28V22.52H415.873V28H417.873ZM416.873 23.52L420.993 23.52V21.52L416.873 21.52V23.52ZM421.993 22.52V17.64H419.993V22.52H421.993ZM420.993 16.64L416.873 16.64V18.64L420.993 18.64V16.64ZM417.873 17.64V2.12L415.873 2.12V17.64H417.873ZM416.873 1.12L409.953 1.12V3.12L416.873 3.12V1.12ZM409.192 1.47193L396.632 16.2319L398.155 17.5281L410.715 2.76807L409.192 1.47193ZM396.393 16.88V22.52L398.393 22.52V16.88L396.393 16.88ZM397.393 23.52H410.593V21.52H397.393V23.52ZM410.593 16.64H403.313V18.64H410.593V16.64ZM404.072 18.2914L411.352 9.81138L409.834 8.50862L402.554 16.9886L404.072 18.2914ZM409.593 9.16V17.64H411.593V9.16H409.593ZM427.446 4.36L428.117 5.10101L428.123 5.09593L427.446 4.36ZM442.886 4.36L443.564 3.6252L443.564 3.62464L442.886 4.36ZM439.206 20.68L440.117 21.0922L440.119 21.0884L439.206 20.68ZM431.126 20.68L430.209 21.0796L430.215 21.0922L431.126 20.68ZM435.126 0.519998C431.942 0.519998 428.972 1.59705 426.769 3.62407L428.123 5.09593C429.92 3.44295 432.39 2.52 435.126 2.52V0.519998ZM426.774 3.61901C423.935 6.19226 422.566 10.189 422.566 15.08H424.566C424.566 10.531 425.837 7.16773 428.117 5.10099L426.774 3.61901ZM422.566 15.08C422.566 19.4286 423.721 23.063 425.922 25.6265C428.139 28.2078 431.329 29.6 435.166 29.6V27.6C431.843 27.6 429.233 26.4122 427.44 24.3235C425.631 22.217 424.566 19.0914 424.566 15.08H422.566ZM435.166 29.6C438.967 29.6 442.153 28.1951 444.375 25.6415C446.585 23.1027 447.766 19.5195 447.766 15.28H445.766C445.766 19.1605 444.687 22.2373 442.867 24.3285C441.059 26.4049 438.445 27.6 435.166 27.6V29.6ZM447.766 15.28C447.766 10.1515 446.438 6.27833 443.564 3.6252L442.208 5.0948C444.533 7.24166 445.766 10.4885 445.766 15.28H447.766ZM443.564 3.62464C441.316 1.55375 438.425 0.519998 435.126 0.519998V2.52C437.987 2.52 440.375 3.40625 442.208 5.09536L443.564 3.62464ZM435.166 7.64C436.309 7.64 437.294 8.22502 438.04 9.46163C438.805 10.7293 439.286 12.6509 439.286 15.12L441.286 15.12C441.286 12.4291 440.767 10.1107 439.752 8.42837C438.718 6.71497 437.143 5.64 435.166 5.64V7.64ZM439.286 15.12C439.286 16.9277 438.905 18.9038 438.293 20.2716L440.119 21.0884C440.867 19.4162 441.286 17.1523 441.286 15.12L439.286 15.12ZM438.295 20.2678C437.674 21.641 436.4 22.48 435.166 22.48V24.48C437.292 24.48 439.218 23.079 440.117 21.0922L438.295 20.2678ZM435.166 22.48C433.932 22.48 432.658 21.641 432.037 20.2678L430.215 21.0922C431.114 23.079 433.04 24.48 435.166 24.48V22.48ZM432.043 20.2804C431.426 18.8658 431.046 16.9253 431.046 15.04H429.046C429.046 17.1547 429.466 19.3742 430.209 21.0796L432.043 20.2804ZM431.046 15.04C431.046 12.6381 431.535 10.7357 432.305 9.47004C433.061 8.22892 434.049 7.64 435.166 7.64V5.64C433.203 5.64 431.631 6.73108 430.597 8.42996C429.577 10.1043 429.046 12.4019 429.046 15.04H431.046ZM462.859 22.52L463.859 22.52V21.52L462.859 21.52V22.52ZM462.859 28H461.859V29H462.859V28ZM469.139 28V29H470.139V28H469.139ZM469.139 22.52V21.52H468.139V22.52H469.139ZM473.259 22.52V23.52H474.259V22.52H473.259ZM473.259 17.64H474.259V16.64H473.259V17.64ZM469.139 17.64H468.139V18.64H469.139V17.64ZM469.139 2.12H470.139V1.12H469.139V2.12ZM462.219 2.12V1.12H461.757L461.457 1.47193L462.219 2.12ZM449.659 16.88L448.897 16.2319L448.659 16.5121V16.88H449.659ZM449.659 22.52H448.659V23.52H449.659V22.52ZM462.859 17.64V18.64L463.859 18.64V17.64L462.859 17.64ZM455.579 17.64L454.82 16.9886L453.402 18.64H455.579V17.64ZM462.859 9.16H463.859V6.45996L462.1 8.50862L462.859 9.16ZM461.859 22.52V28L463.859 28V22.52L461.859 22.52ZM462.859 29L469.139 29V27L462.859 27V29ZM470.139 28V22.52H468.139V28H470.139ZM469.139 23.52H473.259V21.52H469.139V23.52ZM474.259 22.52V17.64H472.259V22.52H474.259ZM473.259 16.64H469.139V18.64H473.259V16.64ZM470.139 17.64V2.12H468.139V17.64H470.139ZM469.139 1.12L462.219 1.12V3.12L469.139 3.12V1.12ZM461.457 1.47193L448.897 16.2319L450.42 17.5281L462.98 2.76807L461.457 1.47193ZM448.659 16.88V22.52H450.659V16.88H448.659ZM449.659 23.52H462.859V21.52H449.659V23.52ZM462.859 16.64H455.579V18.64H462.859V16.64ZM456.338 18.2914L463.617 9.81138L462.1 8.50862L454.82 16.9886L456.338 18.2914ZM461.859 9.16V17.64L463.859 17.64V9.16H461.859ZM500.984 22.52H501.984V21.52H500.984V22.52ZM500.984 28H499.984V29H500.984V28ZM507.264 28V29L508.264 29V28L507.264 28ZM507.264 22.52V21.52H506.264V22.52H507.264ZM511.384 22.52V23.52H512.384V22.52H511.384ZM511.384 17.64H512.384V16.64H511.384V17.64ZM507.264 17.64H506.264V18.64H507.264V17.64ZM507.264 2.12H508.264V1.12H507.264V2.12ZM500.344 2.12V1.12H499.882L499.582 1.47193L500.344 2.12ZM487.784 16.88L487.022 16.2319L486.784 16.5121V16.88H487.784ZM487.784 22.52H486.784V23.52H487.784V22.52ZM500.984 17.64V18.64H501.984V17.64H500.984ZM493.704 17.64L492.945 16.9886L491.527 18.64H493.704V17.64ZM500.984 9.16L501.984 9.16V6.45996L500.225 8.50862L500.984 9.16ZM499.984 22.52V28H501.984V22.52H499.984ZM500.984 29H507.264V27H500.984V29ZM508.264 28V22.52L506.264 22.52V28L508.264 28ZM507.264 23.52L511.384 23.52V21.52L507.264 21.52V23.52ZM512.384 22.52V17.64H510.384V22.52H512.384ZM511.384 16.64L507.264 16.64V18.64L511.384 18.64V16.64ZM508.264 17.64V2.12H506.264V17.64L508.264 17.64ZM507.264 1.12L500.344 1.12V3.12L507.264 3.12V1.12ZM499.582 1.47193L487.022 16.2319L488.545 17.5281L501.105 2.76807L499.582 1.47193ZM486.784 16.88V22.52H488.784V16.88H486.784ZM487.784 23.52H500.984V21.52H487.784V23.52ZM500.984 16.64H493.704V18.64H500.984V16.64ZM494.463 18.2914L501.742 9.81138L500.225 8.50862L492.945 16.9886L494.463 18.2914ZM499.984 9.16V17.64H501.984V9.16L499.984 9.16ZM517.837 4.36L518.508 5.10101L518.514 5.09593L517.837 4.36ZM533.277 4.36L533.955 3.6252L533.954 3.62464L533.277 4.36ZM529.597 20.68L530.508 21.0922L530.509 21.0884L529.597 20.68ZM521.517 20.68L520.6 21.0796L520.605 21.0922L521.517 20.68ZM525.517 0.519998C522.332 0.519998 519.363 1.59705 517.159 3.62407L518.514 5.09593C520.31 3.44295 522.781 2.52 525.517 2.52V0.519998ZM517.165 3.61901C514.326 6.19226 512.957 10.189 512.957 15.08H514.957C514.957 10.531 516.228 7.16773 518.508 5.10099L517.165 3.61901ZM512.957 15.08C512.957 19.4286 514.112 23.063 516.313 25.6265C518.529 28.2078 521.72 29.6 525.557 29.6V27.6C522.233 27.6 519.624 26.4122 517.83 24.3235C516.021 22.217 514.957 19.0914 514.957 15.08H512.957ZM525.557 29.6C529.358 29.6 532.543 28.1951 534.766 25.6415C536.976 23.1027 538.157 19.5195 538.157 15.28H536.157C536.157 19.1605 535.077 22.2373 533.257 24.3285C531.45 26.4049 528.835 27.6 525.557 27.6V29.6ZM538.157 15.28C538.157 10.1515 536.829 6.27833 533.955 3.6252L532.598 5.0948C534.924 7.24166 536.157 10.4885 536.157 15.28H538.157ZM533.954 3.62464C531.707 1.55375 528.815 0.519998 525.517 0.519998V2.52C528.378 2.52 530.766 3.40625 532.599 5.09536L533.954 3.62464ZM525.557 7.64C526.7 7.64 527.684 8.22502 528.43 9.46163C529.195 10.7293 529.677 12.6509 529.677 15.12H531.677C531.677 12.4291 531.158 10.1107 530.143 8.42837C529.109 6.71497 527.533 5.64 525.557 5.64V7.64ZM529.677 15.12C529.677 16.9277 529.296 18.9038 528.684 20.2716L530.509 21.0884C531.257 19.4162 531.677 17.1523 531.677 15.12H529.677ZM528.685 20.2678C528.064 21.641 526.791 22.48 525.557 22.48V24.48C527.682 24.48 529.609 23.079 530.508 21.0922L528.685 20.2678ZM525.557 22.48C524.323 22.48 523.049 21.641 522.428 20.2678L520.605 21.0922C521.504 23.079 523.431 24.48 525.557 24.48V22.48ZM522.433 20.2804C521.817 18.8658 521.437 16.9253 521.437 15.04H519.437C519.437 17.1547 519.857 19.3742 520.6 21.0796L522.433 20.2804ZM521.437 15.04C521.437 12.6381 521.925 10.7357 522.696 9.47004C523.451 8.22892 524.44 7.64 525.557 7.64V5.64C523.594 5.64 522.022 6.73108 520.987 8.42996C519.968 10.1043 519.437 12.4019 519.437 15.04H521.437ZM553.249 22.52H554.249V21.52H553.249V22.52ZM553.249 28H552.249V29H553.249V28ZM559.529 28V29H560.529V28H559.529ZM559.529 22.52V21.52H558.529V22.52H559.529ZM563.649 22.52V23.52H564.649V22.52H563.649ZM563.649 17.64H564.649V16.64H563.649V17.64ZM559.529 17.64H558.529V18.64H559.529V17.64ZM559.529 2.12L560.529 2.12V1.12L559.529 1.12V2.12ZM552.609 2.12V1.12H552.147L551.848 1.47193L552.609 2.12ZM540.049 16.88L539.288 16.2319L539.049 16.5121V16.88H540.049ZM540.049 22.52H539.049V23.52H540.049V22.52ZM553.249 17.64V18.64H554.249V17.64H553.249ZM545.969 17.64L545.211 16.9886L543.793 18.64H545.969V17.64ZM553.249 9.16H554.249V6.45996L552.491 8.50862L553.249 9.16ZM552.249 22.52V28H554.249V22.52H552.249ZM553.249 29H559.529V27H553.249V29ZM560.529 28V22.52H558.529V28H560.529ZM559.529 23.52H563.649V21.52H559.529V23.52ZM564.649 22.52V17.64H562.649V22.52H564.649ZM563.649 16.64H559.529V18.64H563.649V16.64ZM560.529 17.64V2.12L558.529 2.12V17.64H560.529ZM559.529 1.12L552.609 1.12V3.12L559.529 3.12V1.12ZM551.848 1.47193L539.288 16.2319L540.811 17.5281L553.371 2.76807L551.848 1.47193ZM539.049 16.88V22.52H541.049V16.88H539.049ZM540.049 23.52L553.249 23.52V21.52L540.049 21.52V23.52ZM553.249 16.64L545.969 16.64V18.64L553.249 18.64V16.64ZM546.728 18.2914L554.008 9.81138L552.491 8.50862L545.211 16.9886L546.728 18.2914ZM552.249 9.16V17.64H554.249V9.16H552.249ZM591.374 22.52H592.374V21.52H591.374V22.52ZM591.374 28H590.374V29H591.374V28ZM597.654 28V29H598.654V28H597.654ZM597.654 22.52V21.52H596.654V22.52H597.654ZM601.774 22.52V23.52H602.774V22.52H601.774ZM601.774 17.64H602.774V16.64H601.774V17.64ZM597.654 17.64H596.654V18.64H597.654V17.64ZM597.654 2.12L598.654 2.12V1.12L597.654 1.12V2.12ZM590.734 2.12V1.12H590.272L589.973 1.47193L590.734 2.12ZM578.174 16.88L577.413 16.2319L577.174 16.5121V16.88H578.174ZM578.174 22.52H577.174V23.52H578.174V22.52ZM591.374 17.64V18.64H592.374V17.64H591.374ZM584.094 17.64L583.336 16.9886L581.918 18.64H584.094V17.64ZM591.374 9.16H592.374V6.45996L590.616 8.50862L591.374 9.16ZM590.374 22.52V28H592.374V22.52H590.374ZM591.374 29L597.654 29V27L591.374 27V29ZM598.654 28V22.52H596.654V28H598.654ZM597.654 23.52H601.774V21.52H597.654V23.52ZM602.774 22.52V17.64H600.774V22.52H602.774ZM601.774 16.64H597.654V18.64H601.774V16.64ZM598.654 17.64V2.12L596.654 2.12V17.64H598.654ZM597.654 1.12L590.734 1.12V3.12L597.654 3.12V1.12ZM589.973 1.47193L577.413 16.2319L578.936 17.5281L591.496 2.76807L589.973 1.47193ZM577.174 16.88V22.52H579.174V16.88H577.174ZM578.174 23.52H591.374V21.52H578.174V23.52ZM591.374 16.64H584.094V18.64H591.374V16.64ZM584.853 18.2914L592.133 9.81138L590.616 8.50862L583.336 16.9886L584.853 18.2914ZM590.374 9.16V17.64H592.374V9.16H590.374ZM608.227 4.36L608.899 5.10101L608.904 5.09593L608.227 4.36ZM623.667 4.36L624.345 3.6252L624.345 3.62464L623.667 4.36ZM619.987 20.68L620.898 21.0922L620.9 21.0884L619.987 20.68ZM611.907 20.68L610.99 21.0796L610.996 21.0922L611.907 20.68ZM615.907 0.519998C612.723 0.519998 609.753 1.59705 607.55 3.62407L608.904 5.09593C610.701 3.44295 613.171 2.52 615.907 2.52V0.519998ZM607.556 3.61901C604.716 6.19226 603.347 10.189 603.347 15.08H605.347C605.347 10.531 606.618 7.16773 608.899 5.10099L607.556 3.61901ZM603.347 15.08C603.347 19.4286 604.502 23.063 606.703 25.6265C608.92 28.2078 612.11 29.6 615.947 29.6V27.6C612.624 27.6 610.014 26.4122 608.221 24.3235C606.412 22.217 605.347 19.0914 605.347 15.08H603.347ZM615.947 29.6C619.748 29.6 622.934 28.1951 625.156 25.6415C627.366 23.1027 628.547 19.5195 628.547 15.28H626.547C626.547 19.1605 625.468 22.2373 623.648 24.3285C621.841 26.4049 619.226 27.6 615.947 27.6V29.6ZM628.547 15.28C628.547 10.1515 627.22 6.27833 624.345 3.6252L622.989 5.0948C625.315 7.24166 626.547 10.4885 626.547 15.28H628.547ZM624.345 3.62464C622.098 1.55375 619.206 0.519998 615.907 0.519998V2.52C618.768 2.52 621.157 3.40625 622.99 5.09536L624.345 3.62464ZM615.947 7.64C617.09 7.64 618.075 8.22502 618.821 9.46163C619.586 10.7293 620.067 12.6509 620.067 15.12H622.067C622.067 12.4291 621.548 10.1107 620.533 8.42837C619.5 6.71497 617.924 5.64 615.947 5.64V7.64ZM620.067 15.12C620.067 16.9277 619.686 18.9038 619.074 20.2716L620.9 21.0884C621.648 19.4162 622.067 17.1523 622.067 15.12H620.067ZM619.076 20.2678C618.455 21.641 617.181 22.48 615.947 22.48V24.48C618.073 24.48 620 23.079 620.898 21.0922L619.076 20.2678ZM615.947 22.48C614.713 22.48 613.44 21.641 612.818 20.2678L610.996 21.0922C611.895 23.079 613.821 24.48 615.947 24.48V22.48ZM612.824 20.2804C612.207 18.8658 611.827 16.9253 611.827 15.04H609.827C609.827 17.1547 610.247 19.3742 610.99 21.0796L612.824 20.2804ZM611.827 15.04C611.827 12.6381 612.316 10.7357 613.086 9.47004C613.842 8.22892 614.83 7.64 615.947 7.64V5.64C613.984 5.64 612.412 6.73108 611.378 8.42996C610.359 10.1043 609.827 12.4019 609.827 15.04H611.827ZM643.64 22.52H644.64V21.52H643.64V22.52ZM643.64 28H642.64V29H643.64V28ZM649.92 28V29H650.92V28H649.92ZM649.92 22.52V21.52H648.92V22.52H649.92ZM654.04 22.52V23.52H655.04V22.52H654.04ZM654.04 17.64H655.04V16.64H654.04V17.64ZM649.92 17.64H648.92V18.64H649.92V17.64ZM649.92 2.12H650.92V1.12H649.92V2.12ZM643 2.12V1.12L642.538 1.12L642.238 1.47193L643 2.12ZM630.44 16.88L629.678 16.2319L629.44 16.5121V16.88H630.44ZM630.44 22.52H629.44V23.52H630.44V22.52ZM643.64 17.64V18.64H644.64V17.64H643.64ZM636.36 17.64L635.601 16.9886L634.184 18.64H636.36V17.64ZM643.64 9.16H644.64V6.45996L642.881 8.50862L643.64 9.16ZM642.64 22.52V28H644.64V22.52H642.64ZM643.64 29H649.92V27H643.64V29ZM650.92 28V22.52H648.92V28H650.92ZM649.92 23.52H654.04V21.52H649.92V23.52ZM655.04 22.52V17.64H653.04V22.52H655.04ZM654.04 16.64H649.92V18.64H654.04V16.64ZM650.92 17.64V2.12H648.92V17.64H650.92ZM649.92 1.12L643 1.12V3.12L649.92 3.12V1.12ZM642.238 1.47193L629.678 16.2319L631.202 17.5281L643.762 2.76807L642.238 1.47193ZM629.44 16.88V22.52H631.44V16.88H629.44ZM630.44 23.52L643.64 23.52V21.52L630.44 21.52V23.52ZM643.64 16.64L636.36 16.64V18.64L643.64 18.64V16.64ZM637.119 18.2914L644.399 9.81138L642.881 8.50862L635.601 16.9886L637.119 18.2914ZM642.64 9.16V17.64H644.64V9.16H642.64ZM681.765 22.52H682.765V21.52H681.765V22.52ZM681.765 28H680.765V29H681.765V28ZM688.045 28V29H689.045V28H688.045ZM688.045 22.52V21.52H687.045V22.52H688.045ZM692.165 22.52V23.52H693.165V22.52H692.165ZM692.165 17.64H693.165V16.64H692.165V17.64ZM688.045 17.64H687.045V18.64H688.045V17.64ZM688.045 2.12H689.045V1.12H688.045V2.12ZM681.125 2.12V1.12H680.663L680.363 1.47193L681.125 2.12ZM668.565 16.88L667.803 16.2319L667.565 16.5121V16.88H668.565ZM668.565 22.52H667.565V23.52H668.565V22.52ZM681.765 17.64V18.64H682.765V17.64H681.765ZM674.485 17.64L673.726 16.9886L672.309 18.64H674.485V17.64ZM681.765 9.16H682.765V6.45996L681.006 8.50862L681.765 9.16ZM680.765 22.52V28H682.765V22.52H680.765ZM681.765 29L688.045 29V27L681.765 27V29ZM689.045 28V22.52H687.045V28H689.045ZM688.045 23.52H692.165V21.52H688.045V23.52ZM693.165 22.52V17.64H691.165V22.52H693.165ZM692.165 16.64H688.045V18.64H692.165V16.64ZM689.045 17.64V2.12H687.045V17.64H689.045ZM688.045 1.12L681.125 1.12V3.12L688.045 3.12V1.12ZM680.363 1.47193L667.803 16.2319L669.327 17.5281L681.887 2.76807L680.363 1.47193ZM667.565 16.88V22.52H669.565V16.88H667.565ZM668.565 23.52H681.765V21.52H668.565V23.52ZM681.765 16.64H674.485V18.64H681.765V16.64ZM675.244 18.2914L682.524 9.81138L681.006 8.50862L673.726 16.9886L675.244 18.2914ZM680.765 9.16V17.64H682.765V9.16H680.765ZM698.618 4.36L699.289 5.10101L699.295 5.09593L698.618 4.36ZM714.058 4.36L714.736 3.6252L714.735 3.62464L714.058 4.36ZM710.378 20.68L711.289 21.0922L711.291 21.0884L710.378 20.68ZM702.298 20.68L701.381 21.0796L701.387 21.0922L702.298 20.68ZM706.298 0.519998C703.114 0.519998 700.144 1.59705 697.941 3.62407L699.295 5.09593C701.092 3.44295 703.562 2.52 706.298 2.52V0.519998ZM697.946 3.61901C695.107 6.19226 693.738 10.189 693.738 15.08H695.738C695.738 10.531 697.009 7.16773 699.289 5.10099L697.946 3.61901ZM693.738 15.08C693.738 19.4286 694.893 23.063 697.094 25.6265C699.311 28.2078 702.501 29.6 706.338 29.6V27.6C703.015 27.6 700.405 26.4122 698.612 24.3235C696.803 22.217 695.738 19.0914 695.738 15.08H693.738ZM706.338 29.6C710.139 29.6 713.324 28.1951 715.547 25.6415C717.757 23.1027 718.938 19.5195 718.938 15.28H716.938C716.938 19.1605 715.859 22.2373 714.039 24.3285C712.231 26.4049 709.617 27.6 706.338 27.6V29.6ZM718.938 15.28C718.938 10.1515 717.61 6.27833 714.736 3.6252L713.38 5.0948C715.705 7.24166 716.938 10.4885 716.938 15.28H718.938ZM714.735 3.62464C712.488 1.55375 709.597 0.519998 706.298 0.519998V2.52C709.159 2.52 711.547 3.40625 713.38 5.09536L714.735 3.62464ZM706.338 7.64C707.481 7.64 708.465 8.22502 709.212 9.46163C709.977 10.7293 710.458 12.6509 710.458 15.12H712.458C712.458 12.4291 711.939 10.1107 710.924 8.42837C709.89 6.71497 708.315 5.64 706.338 5.64V7.64ZM710.458 15.12C710.458 16.9277 710.077 18.9038 709.465 20.2716L711.291 21.0884C712.039 19.4162 712.458 17.1523 712.458 15.12H710.458ZM709.467 20.2678C708.846 21.641 707.572 22.48 706.338 22.48V24.48C708.464 24.48 710.39 23.079 711.289 21.0922L709.467 20.2678ZM706.338 22.48C705.104 22.48 703.83 21.641 703.209 20.2678L701.387 21.0922C702.286 23.079 704.212 24.48 706.338 24.48V22.48ZM703.215 20.2804C702.598 18.8658 702.218 16.9253 702.218 15.04H700.218C700.218 17.1547 700.638 19.3742 701.381 21.0796L703.215 20.2804ZM702.218 15.04C702.218 12.6381 702.706 10.7357 703.477 9.47004C704.233 8.22892 705.221 7.64 706.338 7.64V5.64C704.375 5.64 702.803 6.73108 701.769 8.42996C700.749 10.1043 700.218 12.4019 700.218 15.04H702.218ZM734.031 22.52H735.031V21.52H734.031V22.52ZM734.031 28H733.031V29H734.031V28ZM740.311 28V29H741.311V28H740.311ZM740.311 22.52V21.52H739.311V22.52H740.311ZM744.431 22.52V23.52H745.431V22.52H744.431ZM744.431 17.64H745.431V16.64H744.431V17.64ZM740.311 17.64H739.311V18.64H740.311V17.64ZM740.311 2.12H741.311V1.12H740.311V2.12ZM733.391 2.12V1.12H732.929L732.629 1.47193L733.391 2.12ZM720.831 16.88L720.069 16.2319L719.831 16.5121V16.88H720.831ZM720.831 22.52H719.831V23.52H720.831V22.52ZM734.031 17.64V18.64H735.031V17.64H734.031ZM726.751 17.64L725.992 16.9886L724.574 18.64H726.751V17.64ZM734.031 9.16H735.031V6.45996L733.272 8.50862L734.031 9.16ZM733.031 22.52V28H735.031V22.52H733.031ZM734.031 29H740.311V27H734.031V29ZM741.311 28V22.52H739.311V28H741.311ZM740.311 23.52H744.431V21.52H740.311V23.52ZM745.431 22.52V17.64H743.431V22.52H745.431ZM744.431 16.64H740.311V18.64H744.431V16.64ZM741.311 17.64V2.12H739.311V17.64H741.311ZM740.311 1.12L733.391 1.12V3.12L740.311 3.12V1.12ZM732.629 1.47193L720.069 16.2319L721.592 17.5281L734.152 2.76807L732.629 1.47193ZM719.831 16.88V22.52H721.831V16.88H719.831ZM720.831 23.52L734.031 23.52V21.52L720.831 21.52V23.52ZM734.031 16.64L726.751 16.64V18.64L734.031 18.64V16.64ZM727.509 18.2914L734.789 9.81138L733.272 8.50862L725.992 16.9886L727.509 18.2914ZM733.031 9.16V17.64H735.031V9.16L733.031 9.16ZM772.156 22.52L773.156 22.52V21.52L772.156 21.52V22.52ZM772.156 28H771.156V29H772.156V28ZM778.436 28V29H779.436V28H778.436ZM778.436 22.52V21.52H777.436V22.52H778.436ZM782.556 22.52V23.52H783.556V22.52H782.556ZM782.556 17.64H783.556V16.64H782.556V17.64ZM778.436 17.64H777.436V18.64H778.436V17.64ZM778.436 2.12H779.436V1.12H778.436V2.12ZM771.516 2.12V1.12H771.054L770.754 1.47193L771.516 2.12ZM758.956 16.88L758.194 16.2319L757.956 16.5121V16.88H758.956ZM758.956 22.52H757.956V23.52H758.956V22.52ZM772.156 17.64V18.64L773.156 18.64V17.64L772.156 17.64ZM764.876 17.64L764.117 16.9886L762.699 18.64H764.876V17.64ZM772.156 9.16H773.156V6.45996L771.397 8.50862L772.156 9.16ZM771.156 22.52V28L773.156 28V22.52L771.156 22.52ZM772.156 29L778.436 29V27L772.156 27V29ZM779.436 28V22.52H777.436V28H779.436ZM778.436 23.52H782.556V21.52H778.436V23.52ZM783.556 22.52V17.64H781.556V22.52H783.556ZM782.556 16.64H778.436V18.64H782.556V16.64ZM779.436 17.64V2.12H777.436V17.64H779.436ZM778.436 1.12L771.516 1.12V3.12L778.436 3.12V1.12ZM770.754 1.47193L758.194 16.2319L759.717 17.5281L772.277 2.76807L770.754 1.47193ZM757.956 16.88V22.52H759.956V16.88H757.956ZM758.956 23.52H772.156V21.52H758.956V23.52ZM772.156 16.64H764.876V18.64H772.156V16.64ZM765.634 18.2914L772.914 9.81138L771.397 8.50862L764.117 16.9886L765.634 18.2914ZM771.156 9.16V17.64L773.156 17.64V9.16H771.156ZM789.008 4.36L789.68 5.10101L789.685 5.09593L789.008 4.36ZM804.448 4.36L805.127 3.6252L805.126 3.62464L804.448 4.36ZM800.768 20.68L801.68 21.0922L801.681 21.0884L800.768 20.68ZM792.688 20.68L791.772 21.0796L791.777 21.0922L792.688 20.68ZM796.688 0.519998C793.504 0.519998 790.535 1.59705 788.331 3.62407L789.685 5.09593C791.482 3.44295 793.953 2.52 796.688 2.52V0.519998ZM788.337 3.61901C785.497 6.19226 784.128 10.189 784.128 15.08H786.128C786.128 10.531 787.399 7.16773 789.68 5.10099L788.337 3.61901ZM784.128 15.08C784.128 19.4286 785.284 23.063 787.485 25.6265C789.701 28.2078 792.892 29.6 796.728 29.6V27.6C793.405 27.6 790.796 26.4122 789.002 24.3235C787.193 22.217 786.128 19.0914 786.128 15.08H784.128ZM796.728 29.6C800.53 29.6 803.715 28.1951 805.938 25.6415C808.148 23.1027 809.328 19.5195 809.328 15.28H807.328C807.328 19.1605 806.249 22.2373 804.429 24.3285C802.622 26.4049 800.007 27.6 796.728 27.6V29.6ZM809.328 15.28C809.328 10.1515 808.001 6.27833 805.127 3.6252L803.77 5.0948C806.096 7.24166 807.328 10.4885 807.328 15.28H809.328ZM805.126 3.62464C802.879 1.55375 799.987 0.519998 796.688 0.519998V2.52C799.55 2.52 801.938 3.40625 803.771 5.09536L805.126 3.62464ZM796.728 7.64C797.872 7.64 798.856 8.22502 799.602 9.46163C800.367 10.7293 800.848 12.6509 800.848 15.12H802.848C802.848 12.4291 802.33 10.1107 801.315 8.42837C800.281 6.71497 798.705 5.64 796.728 5.64V7.64ZM800.848 15.12C800.848 16.9277 800.468 18.9038 799.856 20.2716L801.681 21.0884C802.429 19.4162 802.848 17.1523 802.848 15.12H800.848ZM799.857 20.2678C799.236 21.641 797.963 22.48 796.728 22.48V24.48C798.854 24.48 800.781 23.079 801.68 21.0922L799.857 20.2678ZM796.728 22.48C795.494 22.48 794.221 21.641 793.6 20.2678L791.777 21.0922C792.676 23.079 794.603 24.48 796.728 24.48V22.48ZM793.605 20.2804C792.989 18.8658 792.608 16.9253 792.608 15.04H790.608C790.608 17.1547 791.028 19.3742 791.772 21.0796L793.605 20.2804ZM792.608 15.04C792.608 12.6381 793.097 10.7357 793.868 9.47004C794.623 8.22892 795.611 7.64 796.728 7.64V5.64C794.766 5.64 793.194 6.73108 792.159 8.42996C791.14 10.1043 790.608 12.4019 790.608 15.04H792.608ZM824.421 22.52H825.421V21.52H824.421V22.52ZM824.421 28H823.421V29H824.421V28ZM830.701 28V29H831.701V28H830.701ZM830.701 22.52V21.52H829.701V22.52H830.701ZM834.821 22.52V23.52H835.821V22.52H834.821ZM834.821 17.64H835.821V16.64H834.821V17.64ZM830.701 17.64H829.701V18.64H830.701V17.64ZM830.701 2.12H831.701V1.12H830.701V2.12ZM823.781 2.12V1.12H823.319L823.02 1.47193L823.781 2.12ZM811.221 16.88L810.46 16.2319L810.221 16.5121V16.88H811.221ZM811.221 22.52H810.221V23.52H811.221V22.52ZM824.421 17.64V18.64H825.421V17.64H824.421ZM817.141 17.64L816.383 16.9886L814.965 18.64L817.141 18.64V17.64ZM824.421 9.16H825.421V6.45996L823.662 8.50862L824.421 9.16ZM823.421 22.52V28H825.421V22.52H823.421ZM824.421 29H830.701V27H824.421V29ZM831.701 28V22.52H829.701V28H831.701ZM830.701 23.52H834.821V21.52H830.701V23.52ZM835.821 22.52V17.64H833.821V22.52H835.821ZM834.821 16.64H830.701V18.64H834.821V16.64ZM831.701 17.64V2.12L829.701 2.12V17.64H831.701ZM830.701 1.12L823.781 1.12V3.12L830.701 3.12V1.12ZM823.02 1.47193L810.46 16.2319L811.983 17.5281L824.543 2.76807L823.02 1.47193ZM810.221 16.88V22.52H812.221V16.88H810.221ZM811.221 23.52L824.421 23.52V21.52L811.221 21.52V23.52ZM824.421 16.64H817.141V18.64H824.421V16.64ZM817.9 18.2914L825.18 9.81138L823.662 8.50862L816.383 16.9886L817.9 18.2914ZM823.421 9.16V17.64H825.421V9.16H823.421ZM862.546 22.52H863.546V21.52H862.546V22.52ZM862.546 28H861.546V29H862.546V28ZM868.826 28V29H869.826V28H868.826ZM868.826 22.52V21.52H867.826V22.52H868.826ZM872.946 22.52V23.52H873.946V22.52H872.946ZM872.946 17.64H873.946V16.64H872.946V17.64ZM868.826 17.64H867.826V18.64H868.826V17.64ZM868.826 2.12L869.826 2.12V1.12L868.826 1.12V2.12ZM861.906 2.12V1.12H861.444L861.145 1.47193L861.906 2.12ZM849.346 16.88L848.585 16.2319L848.346 16.5121V16.88H849.346ZM849.346 22.52H848.346V23.52H849.346V22.52ZM862.546 17.64V18.64H863.546V17.64H862.546ZM855.266 17.64L854.508 16.9886L853.09 18.64H855.266V17.64ZM862.546 9.16H863.546V6.45996L861.787 8.50862L862.546 9.16ZM861.546 22.52V28H863.546V22.52H861.546ZM862.546 29H868.826V27H862.546V29ZM869.826 28V22.52H867.826V28H869.826ZM868.826 23.52H872.946V21.52H868.826V23.52ZM873.946 22.52V17.64H871.946V22.52H873.946ZM872.946 16.64H868.826V18.64H872.946V16.64ZM869.826 17.64V2.12L867.826 2.12V17.64H869.826ZM868.826 1.12L861.906 1.12V3.12L868.826 3.12V1.12ZM861.145 1.47193L848.585 16.2319L850.108 17.5281L862.668 2.76807L861.145 1.47193ZM848.346 16.88V22.52H850.346V16.88H848.346ZM849.346 23.52L862.546 23.52V21.52L849.346 21.52V23.52ZM862.546 16.64L855.266 16.64V18.64L862.546 18.64V16.64ZM856.025 18.2914L863.305 9.81138L861.787 8.50862L854.508 16.9886L856.025 18.2914ZM861.546 9.16V17.64H863.546V9.16H861.546ZM879.399 4.36L880.071 5.10101L880.076 5.09593L879.399 4.36ZM894.839 4.36L895.517 3.6252L895.517 3.62464L894.839 4.36ZM891.159 20.68L892.07 21.0922L892.072 21.0884L891.159 20.68ZM883.079 20.68L882.162 21.0796L882.168 21.0922L883.079 20.68ZM887.079 0.519998C883.895 0.519998 880.925 1.59705 878.722 3.62407L880.076 5.09593C881.873 3.44295 884.343 2.52 887.079 2.52V0.519998ZM878.728 3.61901C875.888 6.19226 874.519 10.189 874.519 15.08H876.519C876.519 10.531 877.79 7.16773 880.071 5.10099L878.728 3.61901ZM874.519 15.08C874.519 19.4286 875.674 23.063 877.875 25.6265C880.092 28.2078 883.282 29.6 887.119 29.6V27.6C883.796 27.6 881.186 26.4122 879.393 24.3235C877.584 22.217 876.519 19.0914 876.519 15.08H874.519ZM887.119 29.6C890.92 29.6 894.106 28.1951 896.328 25.6415C898.538 23.1027 899.719 19.5195 899.719 15.28H897.719C897.719 19.1605 896.64 22.2373 894.82 24.3285C893.012 26.4049 890.398 27.6 887.119 27.6V29.6ZM899.719 15.28C899.719 10.1515 898.392 6.27833 895.517 3.6252L894.161 5.0948C896.487 7.24166 897.719 10.4885 897.719 15.28H899.719ZM895.517 3.62464C893.27 1.55375 890.378 0.519998 887.079 0.519998V2.52C889.94 2.52 892.329 3.40625 894.161 5.09536L895.517 3.62464ZM887.119 7.64C888.262 7.64 889.247 8.22502 889.993 9.46163C890.758 10.7293 891.239 12.6509 891.239 15.12H893.239C893.239 12.4291 892.72 10.1107 891.705 8.42837C890.671 6.71497 889.096 5.64 887.119 5.64V7.64ZM891.239 15.12C891.239 16.9277 890.858 18.9038 890.246 20.2716L892.072 21.0884C892.82 19.4162 893.239 17.1523 893.239 15.12H891.239ZM890.248 20.2678C889.627 21.641 888.353 22.48 887.119 22.48V24.48C889.245 24.48 891.171 23.079 892.07 21.0922L890.248 20.2678ZM887.119 22.48C885.885 22.48 884.611 21.641 883.99 20.2678L882.168 21.0922C883.067 23.079 884.993 24.48 887.119 24.48V22.48ZM883.996 20.2804C883.379 18.8658 882.999 16.9253 882.999 15.04L880.999 15.04C880.999 17.1547 881.419 19.3742 882.162 21.0796L883.996 20.2804ZM882.999 15.04C882.999 12.6381 883.488 10.7357 884.258 9.47004C885.014 8.22892 886.002 7.64 887.119 7.64V5.64C885.156 5.64 883.584 6.73108 882.55 8.42996C881.53 10.1043 880.999 12.4019 880.999 15.04L882.999 15.04ZM914.812 22.52H915.812V21.52H914.812V22.52ZM914.812 28H913.812V29H914.812V28ZM921.092 28V29H922.092V28H921.092ZM921.092 22.52V21.52H920.092V22.52H921.092ZM925.212 22.52V23.52H926.212V22.52H925.212ZM925.212 17.64H926.212V16.64H925.212V17.64ZM921.092 17.64H920.092V18.64H921.092V17.64ZM921.092 2.12H922.092V1.12H921.092V2.12ZM914.172 2.12V1.12H913.71L913.41 1.47193L914.172 2.12ZM901.612 16.88L900.85 16.2319L900.612 16.5121V16.88H901.612ZM901.612 22.52H900.612V23.52H901.612V22.52ZM914.812 17.64V18.64H915.812V17.64H914.812ZM907.532 17.64L906.773 16.9886L905.355 18.64H907.532V17.64ZM914.812 9.16H915.812V6.45996L914.053 8.50862L914.812 9.16ZM913.812 22.52V28H915.812V22.52H913.812ZM914.812 29H921.092V27H914.812V29ZM922.092 28V22.52H920.092V28H922.092ZM921.092 23.52H925.212V21.52H921.092V23.52ZM926.212 22.52V17.64H924.212V22.52H926.212ZM925.212 16.64H921.092V18.64H925.212V16.64ZM922.092 17.64V2.12H920.092V17.64H922.092ZM921.092 1.12L914.172 1.12V3.12L921.092 3.12V1.12ZM913.41 1.47193L900.85 16.2319L902.373 17.5281L914.933 2.76807L913.41 1.47193ZM900.612 16.88V22.52H902.612V16.88H900.612ZM901.612 23.52L914.812 23.52V21.52L901.612 21.52V23.52ZM914.812 16.64H907.532V18.64H914.812V16.64ZM908.291 18.2914L915.571 9.81138L914.053 8.50862L906.773 16.9886L908.291 18.2914ZM913.812 9.16V17.64H915.812V9.16H913.812ZM952.937 22.52H953.937V21.52H952.937V22.52ZM952.937 28H951.937V29H952.937V28ZM959.217 28V29H960.217V28H959.217ZM959.217 22.52V21.52H958.217V22.52H959.217ZM963.337 22.52V23.52H964.337V22.52H963.337ZM963.337 17.64H964.337V16.64H963.337V17.64ZM959.217 17.64H958.217V18.64H959.217V17.64ZM959.217 2.12H960.217V1.12H959.217V2.12ZM952.297 2.12V1.12L951.835 1.12L951.535 1.47193L952.297 2.12ZM939.737 16.88L938.975 16.2319L938.737 16.5121V16.88H939.737ZM939.737 22.52H938.737V23.52H939.737V22.52ZM952.937 17.64V18.64H953.937V17.64H952.937ZM945.657 17.64L944.898 16.9886L943.48 18.64H945.657V17.64ZM952.937 9.16H953.937V6.45996L952.178 8.50862L952.937 9.16ZM951.937 22.52V28H953.937V22.52H951.937ZM952.937 29H959.217V27H952.937V29ZM960.217 28V22.52H958.217V28H960.217ZM959.217 23.52H963.337V21.52H959.217V23.52ZM964.337 22.52V17.64H962.337V22.52H964.337ZM963.337 16.64H959.217V18.64H963.337V16.64ZM960.217 17.64V2.12H958.217V17.64H960.217ZM959.217 1.12L952.297 1.12V3.12L959.217 3.12V1.12ZM951.535 1.47193L938.975 16.2319L940.498 17.5281L953.058 2.76807L951.535 1.47193ZM938.737 16.88V22.52H940.737V16.88H938.737ZM939.737 23.52L952.937 23.52V21.52L939.737 21.52V23.52ZM952.937 16.64L945.657 16.64V18.64L952.937 18.64V16.64ZM946.416 18.2914L953.696 9.81138L952.178 8.50862L944.898 16.9886L946.416 18.2914ZM951.937 9.16V17.64H953.937V9.16H951.937ZM969.79 4.36L970.461 5.10101L970.467 5.09593L969.79 4.36ZM985.23 4.36L985.908 3.6252L985.907 3.62464L985.23 4.36ZM981.55 20.68L982.461 21.0922L982.463 21.0884L981.55 20.68ZM973.47 20.68L972.553 21.0796L972.559 21.0922L973.47 20.68ZM977.47 0.519998C974.286 0.519998 971.316 1.59705 969.113 3.62407L970.467 5.09593C972.263 3.44295 974.734 2.52 977.47 2.52V0.519998ZM969.118 3.61901C966.279 6.19226 964.91 10.189 964.91 15.08H966.91C966.91 10.531 968.181 7.16773 970.461 5.10099L969.118 3.61901ZM964.91 15.08C964.91 19.4286 966.065 23.063 968.266 25.6265C970.483 28.2078 973.673 29.6 977.51 29.6V27.6C974.187 27.6 971.577 26.4122 969.783 24.3235C967.975 22.217 966.91 19.0914 966.91 15.08H964.91ZM977.51 29.6C981.311 29.6 984.496 28.1951 986.719 25.6415C988.929 23.1027 990.11 19.5195 990.11 15.28H988.11C988.11 19.1605 987.031 22.2373 985.21 24.3285C983.403 26.4049 980.788 27.6 977.51 27.6V29.6ZM990.11 15.28C990.11 10.1515 988.782 6.27833 985.908 3.6252L984.551 5.0948C986.877 7.24166 988.11 10.4885 988.11 15.28H990.11ZM985.907 3.62464C983.66 1.55375 980.768 0.519998 977.47 0.519998V2.52C980.331 2.52 982.719 3.40625 984.552 5.09536L985.907 3.62464ZM977.51 7.64C978.653 7.64 979.637 8.22502 980.383 9.46163C981.148 10.7293 981.63 12.6509 981.63 15.12H983.63C983.63 12.4291 983.111 10.1107 982.096 8.42837C981.062 6.71497 979.486 5.64 977.51 5.64V7.64ZM981.63 15.12C981.63 16.9277 981.249 18.9038 980.637 20.2716L982.463 21.0884C983.211 19.4162 983.63 17.1523 983.63 15.12H981.63ZM980.639 20.2678C980.017 21.641 978.744 22.48 977.51 22.48V24.48C979.636 24.48 981.562 23.079 982.461 21.0922L980.639 20.2678ZM977.51 22.48C976.276 22.48 975.002 21.641 974.381 20.2678L972.559 21.0922C973.457 23.079 975.384 24.48 977.51 24.48V22.48ZM974.386 20.2804C973.77 18.8658 973.39 16.9253 973.39 15.04H971.39C971.39 17.1547 971.81 19.3742 972.553 21.0796L974.386 20.2804ZM973.39 15.04C973.39 12.6381 973.878 10.7357 974.649 9.47004C975.404 8.22892 976.393 7.64 977.51 7.64V5.64C975.547 5.64 973.975 6.73108 972.941 8.42996C971.921 10.1043 971.39 12.4019 971.39 15.04H973.39ZM1005.2 22.52H1006.2V21.52H1005.2V22.52ZM1005.2 28H1004.2V29H1005.2V28ZM1011.48 28V29H1012.48V28H1011.48ZM1011.48 22.52V21.52H1010.48V22.52H1011.48ZM1015.6 22.52V23.52H1016.6V22.52H1015.6ZM1015.6 17.64H1016.6V16.64H1015.6V17.64ZM1011.48 17.64H1010.48V18.64H1011.48V17.64ZM1011.48 2.12H1012.48V1.12H1011.48V2.12ZM1004.56 2.12V1.12H1004.1L1003.8 1.47193L1004.56 2.12ZM992.002 16.88L991.241 16.2319L991.002 16.5121V16.88H992.002ZM992.002 22.52H991.002V23.52H992.002V22.52ZM1005.2 17.64V18.64H1006.2V17.64H1005.2ZM997.922 17.64L997.164 16.9886L995.746 18.64H997.922V17.64ZM1005.2 9.16H1006.2V6.45996L1004.44 8.50862L1005.2 9.16ZM1004.2 22.52V28H1006.2V22.52H1004.2ZM1005.2 29H1011.48V27H1005.2V29ZM1012.48 28V22.52H1010.48V28H1012.48ZM1011.48 23.52L1015.6 23.52V21.52L1011.48 21.52V23.52ZM1016.6 22.52V17.64L1014.6 17.64V22.52L1016.6 22.52ZM1015.6 16.64L1011.48 16.64V18.64L1015.6 18.64V16.64ZM1012.48 17.64V2.12H1010.48V17.64H1012.48ZM1011.48 1.12L1004.56 1.12V3.12L1011.48 3.12V1.12ZM1003.8 1.47193L991.241 16.2319L992.764 17.5281L1005.32 2.76807L1003.8 1.47193ZM991.002 16.88V22.52H993.002V16.88H991.002ZM992.002 23.52L1005.2 23.52V21.52L992.002 21.52V23.52ZM1005.2 16.64H997.922V18.64H1005.2V16.64ZM998.681 18.2914L1005.96 9.81138L1004.44 8.50862L997.164 16.9886L998.681 18.2914ZM1004.2 9.16V17.64H1006.2V9.16H1004.2ZM1043.33 22.52H1044.33V21.52H1043.33V22.52ZM1043.33 28H1042.33V29H1043.33V28ZM1049.61 28V29H1050.61V28H1049.61ZM1049.61 22.52V21.52H1048.61V22.52H1049.61ZM1053.73 22.52V23.52H1054.73V22.52H1053.73ZM1053.73 17.64H1054.73V16.64H1053.73V17.64ZM1049.61 17.64H1048.61V18.64H1049.61V17.64ZM1049.61 2.12H1050.61V1.12H1049.61V2.12ZM1042.69 2.12V1.12H1042.23L1041.93 1.47193L1042.69 2.12ZM1030.13 16.88L1029.37 16.2319L1029.13 16.5121V16.88H1030.13ZM1030.13 22.52H1029.13V23.52H1030.13V22.52ZM1043.33 17.64V18.64H1044.33V17.64H1043.33ZM1036.05 17.64L1035.29 16.9886L1033.87 18.64H1036.05V17.64ZM1043.33 9.16H1044.33V6.45996L1042.57 8.50862L1043.33 9.16ZM1042.33 22.52V28H1044.33V22.52H1042.33ZM1043.33 29H1049.61V27H1043.33V29ZM1050.61 28V22.52H1048.61V28H1050.61ZM1049.61 23.52H1053.73V21.52H1049.61V23.52ZM1054.73 22.52V17.64H1052.73V22.52H1054.73ZM1053.73 16.64H1049.61V18.64H1053.73V16.64ZM1050.61 17.64V2.12H1048.61V17.64H1050.61ZM1049.61 1.12L1042.69 1.12V3.12L1049.61 3.12V1.12ZM1041.93 1.47193L1029.37 16.2319L1030.89 17.5281L1043.45 2.76807L1041.93 1.47193ZM1029.13 16.88V22.52H1031.13V16.88H1029.13ZM1030.13 23.52L1043.33 23.52V21.52L1030.13 21.52V23.52ZM1043.33 16.64L1036.05 16.64V18.64L1043.33 18.64V16.64ZM1036.81 18.2914L1044.09 9.81138L1042.57 8.50862L1035.29 16.9886L1036.81 18.2914ZM1042.33 9.16V17.64H1044.33V9.16L1042.33 9.16ZM1060.18 4.36L1060.85 5.10101L1060.86 5.09593L1060.18 4.36ZM1075.62 4.36L1076.3 3.6252L1076.3 3.62464L1075.62 4.36ZM1071.94 20.68L1072.85 21.0922L1072.85 21.0884L1071.94 20.68ZM1063.86 20.68L1062.94 21.0796L1062.95 21.0922L1063.86 20.68ZM1067.86 0.519998C1064.68 0.519998 1061.71 1.59705 1059.5 3.62407L1060.86 5.09593C1062.65 3.44295 1065.12 2.52 1067.86 2.52V0.519998ZM1059.51 3.61901C1056.67 6.19226 1055.3 10.189 1055.3 15.08H1057.3C1057.3 10.531 1058.57 7.16773 1060.85 5.10099L1059.51 3.61901ZM1055.3 15.08C1055.3 19.4286 1056.46 23.063 1058.66 25.6265C1060.87 28.2078 1064.06 29.6 1067.9 29.6V27.6C1064.58 27.6 1061.97 26.4122 1060.17 24.3235C1058.37 22.217 1057.3 19.0914 1057.3 15.08H1055.3ZM1067.9 29.6C1071.7 29.6 1074.89 28.1951 1077.11 25.6415C1079.32 23.1027 1080.5 19.5195 1080.5 15.28H1078.5C1078.5 19.1605 1077.42 22.2373 1075.6 24.3285C1073.79 26.4049 1071.18 27.6 1067.9 27.6V29.6ZM1080.5 15.28C1080.5 10.1515 1079.17 6.27833 1076.3 3.6252L1074.94 5.0948C1077.27 7.24166 1078.5 10.4885 1078.5 15.28H1080.5ZM1076.3 3.62464C1074.05 1.55375 1071.16 0.519998 1067.86 0.519998V2.52C1070.72 2.52 1073.11 3.40625 1074.94 5.09536L1076.3 3.62464ZM1067.9 7.64C1069.04 7.64 1070.03 8.22502 1070.77 9.46163C1071.54 10.7293 1072.02 12.6509 1072.02 15.12H1074.02C1074.02 12.4291 1073.5 10.1107 1072.49 8.42837C1071.45 6.71497 1069.88 5.64 1067.9 5.64V7.64ZM1072.02 15.12C1072.02 16.9277 1071.64 18.9038 1071.03 20.2716L1072.85 21.0884C1073.6 19.4162 1074.02 17.1523 1074.02 15.12H1072.02ZM1071.03 20.2678C1070.41 21.641 1069.13 22.48 1067.9 22.48V24.48C1070.03 24.48 1071.95 23.079 1072.85 21.0922L1071.03 20.2678ZM1067.9 22.48C1066.67 22.48 1065.39 21.641 1064.77 20.2678L1062.95 21.0922C1063.85 23.079 1065.77 24.48 1067.9 24.48V22.48ZM1064.78 20.2804C1064.16 18.8658 1063.78 16.9253 1063.78 15.04H1061.78C1061.78 17.1547 1062.2 19.3742 1062.94 21.0796L1064.78 20.2804ZM1063.78 15.04C1063.78 12.6381 1064.27 10.7357 1065.04 9.47004C1065.8 8.22892 1066.78 7.64 1067.9 7.64V5.64C1065.94 5.64 1064.37 6.73108 1063.33 8.42996C1062.31 10.1043 1061.78 12.4019 1061.78 15.04H1063.78ZM1095.59 22.52H1096.59V21.52H1095.59V22.52ZM1095.59 28H1094.59V29H1095.59V28ZM1101.87 28V29H1102.87V28H1101.87ZM1101.87 22.52V21.52H1100.87V22.52H1101.87ZM1105.99 22.52V23.52H1106.99V22.52H1105.99ZM1105.99 17.64H1106.99V16.64H1105.99V17.64ZM1101.87 17.64H1100.87V18.64H1101.87V17.64ZM1101.87 2.12H1102.87V1.12H1101.87V2.12ZM1094.95 2.12V1.12H1094.49L1094.19 1.47193L1094.95 2.12ZM1082.39 16.88L1081.63 16.2319L1081.39 16.5121V16.88L1082.39 16.88ZM1082.39 22.52L1081.39 22.52V23.52L1082.39 23.52V22.52ZM1095.59 17.64V18.64H1096.59V17.64H1095.59ZM1088.31 17.64L1087.55 16.9886L1086.14 18.64H1088.31V17.64ZM1095.59 9.16H1096.59V6.45996L1094.83 8.50862L1095.59 9.16ZM1094.59 22.52V28H1096.59V22.52H1094.59ZM1095.59 29H1101.87V27H1095.59V29ZM1102.87 28V22.52H1100.87V28H1102.87ZM1101.87 23.52L1105.99 23.52V21.52L1101.87 21.52V23.52ZM1106.99 22.52V17.64H1104.99V22.52H1106.99ZM1105.99 16.64L1101.87 16.64V18.64L1105.99 18.64V16.64ZM1102.87 17.64V2.12L1100.87 2.12V17.64H1102.87ZM1101.87 1.12L1094.95 1.12V3.12L1101.87 3.12V1.12ZM1094.19 1.47193L1081.63 16.2319L1083.15 17.5281L1095.71 2.76807L1094.19 1.47193ZM1081.39 16.88V22.52L1083.39 22.52V16.88L1081.39 16.88ZM1082.39 23.52H1095.59V21.52H1082.39V23.52ZM1095.59 16.64H1088.31V18.64H1095.59V16.64ZM1089.07 18.2914L1096.35 9.81138L1094.83 8.50862L1087.55 16.9886L1089.07 18.2914ZM1094.59 9.16V17.64H1096.59V9.16H1094.59ZM1133.72 22.52H1134.72V21.52H1133.72V22.52ZM1133.72 28H1132.72V29H1133.72V28ZM1140 28V29H1141V28H1140ZM1140 22.52V21.52H1139V22.52H1140ZM1144.12 22.52V23.52H1145.12V22.52H1144.12ZM1144.12 17.64H1145.12V16.64H1144.12V17.64ZM1140 17.64H1139V18.64H1140V17.64ZM1140 2.12H1141V1.12H1140V2.12ZM1133.08 2.12V1.12H1132.62L1132.32 1.47193L1133.08 2.12ZM1120.52 16.88L1119.76 16.2319L1119.52 16.5121V16.88H1120.52ZM1120.52 22.52H1119.52V23.52H1120.52V22.52ZM1133.72 17.64V18.64H1134.72V17.64H1133.72ZM1126.44 17.64L1125.68 16.9886L1124.26 18.64L1126.44 18.64V17.64ZM1133.72 9.16H1134.72V6.45996L1132.96 8.50862L1133.72 9.16ZM1132.72 22.52V28H1134.72V22.52H1132.72ZM1133.72 29H1140V27H1133.72V29ZM1141 28V22.52H1139V28H1141ZM1140 23.52H1144.12V21.52H1140V23.52ZM1145.12 22.52V17.64H1143.12V22.52H1145.12ZM1144.12 16.64H1140V18.64H1144.12V16.64ZM1141 17.64V2.12L1139 2.12V17.64H1141ZM1140 1.12L1133.08 1.12V3.12L1140 3.12V1.12ZM1132.32 1.47193L1119.76 16.2319L1121.28 17.5281L1133.84 2.76807L1132.32 1.47193ZM1119.52 16.88V22.52H1121.52V16.88H1119.52ZM1120.52 23.52L1133.72 23.52V21.52L1120.52 21.52V23.52ZM1133.72 16.64H1126.44V18.64H1133.72V16.64ZM1127.2 18.2914L1134.48 9.81138L1132.96 8.50862L1125.68 16.9886L1127.2 18.2914ZM1132.72 9.16V17.64H1134.72V9.16H1132.72ZM1150.57 4.36L1151.24 5.10101L1151.25 5.09593L1150.57 4.36ZM1166.01 4.36L1166.69 3.6252L1166.69 3.62464L1166.01 4.36ZM1162.33 20.68L1163.24 21.0922L1163.24 21.0884L1162.33 20.68ZM1154.25 20.68L1153.33 21.0796L1153.34 21.0922L1154.25 20.68ZM1158.25 0.519998C1155.07 0.519998 1152.1 1.59705 1149.89 3.62407L1151.25 5.09593C1153.04 3.44295 1155.52 2.52 1158.25 2.52V0.519998ZM1149.9 3.61901C1147.06 6.19226 1145.69 10.189 1145.69 15.08H1147.69C1147.69 10.531 1148.96 7.16773 1151.24 5.10099L1149.9 3.61901ZM1145.69 15.08C1145.69 19.4286 1146.85 23.063 1149.05 25.6265C1151.26 28.2078 1154.45 29.6 1158.29 29.6V27.6C1154.97 27.6 1152.36 26.4122 1150.56 24.3235C1148.76 22.217 1147.69 19.0914 1147.69 15.08H1145.69ZM1158.29 29.6C1162.09 29.6 1165.28 28.1951 1167.5 25.6415C1169.71 23.1027 1170.89 19.5195 1170.89 15.28L1168.89 15.28C1168.89 19.1605 1167.81 22.2373 1165.99 24.3285C1164.18 26.4049 1161.57 27.6 1158.29 27.6V29.6ZM1170.89 15.28C1170.89 10.1515 1169.56 6.27833 1166.69 3.6252L1165.33 5.0948C1167.66 7.24166 1168.89 10.4885 1168.89 15.28L1170.89 15.28ZM1166.69 3.62464C1164.44 1.55375 1161.55 0.519998 1158.25 0.519998V2.52C1161.11 2.52 1163.5 3.40625 1165.33 5.09536L1166.69 3.62464ZM1158.29 7.64C1159.43 7.64 1160.42 8.22502 1161.16 9.46163C1161.93 10.7293 1162.41 12.6509 1162.41 15.12H1164.41C1164.41 12.4291 1163.89 10.1107 1162.88 8.42837C1161.84 6.71497 1160.27 5.64 1158.29 5.64V7.64ZM1162.41 15.12C1162.41 16.9277 1162.03 18.9038 1161.42 20.2716L1163.24 21.0884C1163.99 19.4162 1164.41 17.1523 1164.41 15.12H1162.41ZM1161.42 20.2678C1160.8 21.641 1159.53 22.48 1158.29 22.48V24.48C1160.42 24.48 1162.34 23.079 1163.24 21.0922L1161.42 20.2678ZM1158.29 22.48C1157.06 22.48 1155.78 21.641 1155.16 20.2678L1153.34 21.0922C1154.24 23.079 1156.17 24.48 1158.29 24.48V22.48ZM1155.17 20.2804C1154.55 18.8658 1154.17 16.9253 1154.17 15.04H1152.17C1152.17 17.1547 1152.59 19.3742 1153.33 21.0796L1155.17 20.2804ZM1154.17 15.04C1154.17 12.6381 1154.66 10.7357 1155.43 9.47004C1156.19 8.22892 1157.17 7.64 1158.29 7.64V5.64C1156.33 5.64 1154.76 6.73108 1153.72 8.42996C1152.7 10.1043 1152.17 12.4019 1152.17 15.04H1154.17ZM1185.98 22.52H1186.98V21.52H1185.98V22.52ZM1185.98 28H1184.98V29H1185.98V28ZM1192.26 28V29H1193.26V28H1192.26ZM1192.26 22.52V21.52L1191.26 21.52V22.52L1192.26 22.52ZM1196.38 22.52V23.52H1197.38V22.52H1196.38ZM1196.38 17.64H1197.38V16.64H1196.38V17.64ZM1192.26 17.64L1191.26 17.64V18.64L1192.26 18.64V17.64ZM1192.26 2.12H1193.26V1.12H1192.26V2.12ZM1185.34 2.12V1.12H1184.88L1184.58 1.47193L1185.34 2.12ZM1172.78 16.88L1172.02 16.2319L1171.78 16.5121V16.88H1172.78ZM1172.78 22.52H1171.78V23.52H1172.78V22.52ZM1185.98 17.64V18.64H1186.98V17.64H1185.98ZM1178.7 17.64L1177.94 16.9886L1176.53 18.64H1178.7V17.64ZM1185.98 9.16L1186.98 9.16V6.45996L1185.22 8.50862L1185.98 9.16ZM1184.98 22.52V28H1186.98V22.52H1184.98ZM1185.98 29L1192.26 29V27L1185.98 27V29ZM1193.26 28V22.52L1191.26 22.52V28L1193.26 28ZM1192.26 23.52H1196.38V21.52H1192.26V23.52ZM1197.38 22.52V17.64H1195.38V22.52H1197.38ZM1196.38 16.64H1192.26V18.64H1196.38V16.64ZM1193.26 17.64V2.12H1191.26V17.64L1193.26 17.64ZM1192.26 1.12L1185.34 1.12V3.12L1192.26 3.12V1.12ZM1184.58 1.47193L1172.02 16.2319L1173.55 17.5281L1186.11 2.76807L1184.58 1.47193ZM1171.78 16.88V22.52H1173.78V16.88H1171.78ZM1172.78 23.52H1185.98V21.52H1172.78V23.52ZM1185.98 16.64H1178.7V18.64H1185.98V16.64ZM1179.46 18.2914L1186.74 9.81138L1185.22 8.50862L1177.94 16.9886L1179.46 18.2914ZM1184.98 9.16V17.64H1186.98V9.16L1184.98 9.16ZM1224.11 22.52H1225.11V21.52H1224.11V22.52ZM1224.11 28H1223.11V29H1224.11V28ZM1230.39 28V29H1231.39V28H1230.39ZM1230.39 22.52V21.52H1229.39V22.52H1230.39ZM1234.51 22.52V23.52H1235.51V22.52H1234.51ZM1234.51 17.64H1235.51V16.64H1234.51V17.64ZM1230.39 17.64H1229.39V18.64H1230.39V17.64ZM1230.39 2.12H1231.39V1.12H1230.39V2.12ZM1223.47 2.12V1.12H1223.01L1222.71 1.47193L1223.47 2.12ZM1210.91 16.88L1210.15 16.2319L1209.91 16.5121V16.88H1210.91ZM1210.91 22.52H1209.91V23.52H1210.91V22.52ZM1224.11 17.64V18.64H1225.11V17.64H1224.11ZM1216.83 17.64L1216.07 16.9886L1214.65 18.64H1216.83V17.64ZM1224.11 9.16H1225.11V6.45996L1223.35 8.50862L1224.11 9.16ZM1223.11 22.52V28H1225.11V22.52H1223.11ZM1224.11 29H1230.39V27H1224.11V29ZM1231.39 28V22.52H1229.39V28H1231.39ZM1230.39 23.52H1234.51V21.52H1230.39V23.52ZM1235.51 22.52V17.64H1233.51V22.52H1235.51ZM1234.51 16.64H1230.39V18.64H1234.51V16.64ZM1231.39 17.64V2.12H1229.39V17.64H1231.39ZM1230.39 1.12L1223.47 1.12V3.12L1230.39 3.12V1.12ZM1222.71 1.47193L1210.15 16.2319L1211.67 17.5281L1224.23 2.76807L1222.71 1.47193ZM1209.91 16.88V22.52H1211.91V16.88H1209.91ZM1210.91 23.52L1224.11 23.52V21.52L1210.91 21.52V23.52ZM1224.11 16.64H1216.83V18.64H1224.11V16.64ZM1217.59 18.2914L1224.87 9.81138L1223.35 8.50862L1216.07 16.9886L1217.59 18.2914ZM1223.11 9.16V17.64H1225.11V9.16H1223.11ZM1240.96 4.36L1241.63 5.10101L1241.64 5.09593L1240.96 4.36ZM1256.4 4.36L1257.08 3.6252L1257.08 3.62464L1256.4 4.36ZM1252.72 20.68L1253.63 21.0922L1253.63 21.0884L1252.72 20.68ZM1244.64 20.68L1243.72 21.0796L1243.73 21.0922L1244.64 20.68ZM1248.64 0.519998C1245.46 0.519998 1242.49 1.59705 1240.28 3.62407L1241.64 5.09593C1243.44 3.44295 1245.91 2.52 1248.64 2.52V0.519998ZM1240.29 3.61901C1237.45 6.19226 1236.08 10.189 1236.08 15.08L1238.08 15.08C1238.08 10.531 1239.35 7.16773 1241.63 5.10099L1240.29 3.61901ZM1236.08 15.08C1236.08 19.4286 1237.24 23.063 1239.44 25.6265C1241.65 28.2078 1244.84 29.6 1248.68 29.6V27.6C1245.36 27.6 1242.75 26.4122 1240.96 24.3235C1239.15 22.217 1238.08 19.0914 1238.08 15.08L1236.08 15.08ZM1248.68 29.6C1252.48 29.6 1255.67 28.1951 1257.89 25.6415C1260.1 23.1027 1261.28 19.5195 1261.28 15.28H1259.28C1259.28 19.1605 1258.2 22.2373 1256.38 24.3285C1254.57 26.4049 1251.96 27.6 1248.68 27.6V29.6ZM1261.28 15.28C1261.28 10.1515 1259.95 6.27833 1257.08 3.6252L1255.72 5.0948C1258.05 7.24166 1259.28 10.4885 1259.28 15.28H1261.28ZM1257.08 3.62464C1254.83 1.55375 1251.94 0.519998 1248.64 0.519998V2.52C1251.5 2.52 1253.89 3.40625 1255.72 5.09536L1257.08 3.62464ZM1248.68 7.64C1249.82 7.64 1250.81 8.22502 1251.56 9.46163C1252.32 10.7293 1252.8 12.6509 1252.8 15.12H1254.8C1254.8 12.4291 1254.28 10.1107 1253.27 8.42837C1252.23 6.71497 1250.66 5.64 1248.68 5.64V7.64ZM1252.8 15.12C1252.8 16.9277 1252.42 18.9038 1251.81 20.2716L1253.63 21.0884C1254.38 19.4162 1254.8 17.1523 1254.8 15.12H1252.8ZM1251.81 20.2678C1251.19 21.641 1249.92 22.48 1248.68 22.48V24.48C1250.81 24.48 1252.73 23.079 1253.63 21.0922L1251.81 20.2678ZM1248.68 22.48C1247.45 22.48 1246.17 21.641 1245.55 20.2678L1243.73 21.0922C1244.63 23.079 1246.56 24.48 1248.68 24.48V22.48ZM1245.56 20.2804C1244.94 18.8658 1244.56 16.9253 1244.56 15.04H1242.56C1242.56 17.1547 1242.98 19.3742 1243.72 21.0796L1245.56 20.2804ZM1244.56 15.04C1244.56 12.6381 1245.05 10.7357 1245.82 9.47004C1246.58 8.22892 1247.56 7.64 1248.68 7.64V5.64C1246.72 5.64 1245.15 6.73108 1244.11 8.42996C1243.09 10.1043 1242.56 12.4019 1242.56 15.04H1244.56ZM1276.37 22.52H1277.37V21.52H1276.37V22.52ZM1276.37 28H1275.37V29H1276.37V28ZM1282.65 28V29H1283.65V28H1282.65ZM1282.65 22.52V21.52H1281.65V22.52H1282.65ZM1286.77 22.52V23.52H1287.77V22.52H1286.77ZM1286.77 17.64H1287.77V16.64H1286.77V17.64ZM1282.65 17.64H1281.65V18.64H1282.65V17.64ZM1282.65 2.12L1283.65 2.12V1.12L1282.65 1.12V2.12ZM1275.73 2.12V1.12H1275.27L1274.97 1.47193L1275.73 2.12ZM1263.17 16.88L1262.41 16.2319L1262.17 16.5121V16.88H1263.17ZM1263.17 22.52H1262.17V23.52H1263.17V22.52ZM1276.37 17.64V18.64H1277.37V17.64H1276.37ZM1269.09 17.64L1268.34 16.9886L1266.92 18.64H1269.09V17.64ZM1276.37 9.16H1277.37V6.45996L1275.62 8.50862L1276.37 9.16ZM1275.37 22.52V28H1277.37V22.52H1275.37ZM1276.37 29L1282.65 29V27L1276.37 27V29ZM1283.65 28V22.52H1281.65V28H1283.65ZM1282.65 23.52H1286.77V21.52H1282.65V23.52ZM1287.77 22.52V17.64H1285.77V22.52H1287.77ZM1286.77 16.64H1282.65V18.64H1286.77V16.64ZM1283.65 17.64V2.12L1281.65 2.12V17.64H1283.65ZM1282.65 1.12L1275.73 1.12V3.12L1282.65 3.12V1.12ZM1274.97 1.47193L1262.41 16.2319L1263.94 17.5281L1276.5 2.76807L1274.97 1.47193ZM1262.17 16.88V22.52H1264.17V16.88H1262.17ZM1263.17 23.52H1276.37V21.52H1263.17V23.52ZM1276.37 16.64H1269.09V18.64H1276.37V16.64ZM1269.85 18.2914L1277.13 9.81138L1275.62 8.50862L1268.34 16.9886L1269.85 18.2914ZM1275.37 9.16V17.64H1277.37V9.16H1275.37ZM1314.5 22.52H1315.5V21.52H1314.5V22.52ZM1314.5 28H1313.5V29H1314.5V28ZM1320.78 28V29H1321.78V28H1320.78ZM1320.78 22.52V21.52H1319.78V22.52H1320.78ZM1324.9 22.52V23.52H1325.9V22.52H1324.9ZM1324.9 17.64H1325.9V16.64H1324.9V17.64ZM1320.78 17.64H1319.78V18.64H1320.78V17.64ZM1320.78 2.12H1321.78V1.12H1320.78V2.12ZM1313.86 2.12V1.12H1313.4L1313.1 1.47193L1313.86 2.12ZM1301.3 16.88L1300.54 16.2319L1300.3 16.5121V16.88H1301.3ZM1301.3 22.52H1300.3V23.52H1301.3V22.52ZM1314.5 17.64V18.64H1315.5V17.64H1314.5ZM1307.22 17.64L1306.46 16.9886L1305.04 18.64H1307.22V17.64ZM1314.5 9.16H1315.5V6.45996L1313.74 8.50862L1314.5 9.16ZM1313.5 22.52V28H1315.5V22.52H1313.5ZM1314.5 29H1320.78V27H1314.5V29ZM1321.78 28V22.52H1319.78V28H1321.78ZM1320.78 23.52L1324.9 23.52V21.52L1320.78 21.52V23.52ZM1325.9 22.52V17.64L1323.9 17.64V22.52L1325.9 22.52ZM1324.9 16.64L1320.78 16.64V18.64L1324.9 18.64V16.64ZM1321.78 17.64V2.12H1319.78V17.64H1321.78ZM1320.78 1.12L1313.86 1.12V3.12L1320.78 3.12V1.12ZM1313.1 1.47193L1300.54 16.2319L1302.06 17.5281L1314.62 2.76807L1313.1 1.47193ZM1300.3 16.88V22.52H1302.3V16.88H1300.3ZM1301.3 23.52L1314.5 23.52V21.52L1301.3 21.52V23.52ZM1314.5 16.64H1307.22V18.64H1314.5V16.64ZM1307.98 18.2914L1315.26 9.81138L1313.74 8.50862L1306.46 16.9886L1307.98 18.2914ZM1313.5 9.16V17.64H1315.5V9.16H1313.5ZM1331.35 4.36L1332.02 5.10101L1332.03 5.09593L1331.35 4.36ZM1346.79 4.36L1347.47 3.6252L1347.47 3.62464L1346.79 4.36ZM1343.11 20.68L1344.02 21.0922L1344.03 21.0884L1343.11 20.68ZM1335.03 20.68L1334.12 21.0796L1334.12 21.0922L1335.03 20.68ZM1339.03 0.519998C1335.85 0.519998 1332.88 1.59705 1330.68 3.62407L1332.03 5.09593C1333.83 3.44295 1336.3 2.52 1339.03 2.52V0.519998ZM1330.68 3.61901C1327.84 6.19226 1326.47 10.189 1326.47 15.08H1328.47C1328.47 10.531 1329.74 7.16773 1332.02 5.10099L1330.68 3.61901ZM1326.47 15.08C1326.47 19.4286 1327.63 23.063 1329.83 25.6265C1332.05 28.2078 1335.24 29.6 1339.07 29.6V27.6C1335.75 27.6 1333.14 26.4122 1331.35 24.3235C1329.54 22.217 1328.47 19.0914 1328.47 15.08H1326.47ZM1339.07 29.6C1342.87 29.6 1346.06 28.1951 1348.28 25.6415C1350.49 23.1027 1351.67 19.5195 1351.67 15.28H1349.67C1349.67 19.1605 1348.59 22.2373 1346.77 24.3285C1344.97 26.4049 1342.35 27.6 1339.07 27.6V29.6ZM1351.67 15.28C1351.67 10.1515 1350.34 6.27833 1347.47 3.6252L1346.11 5.0948C1348.44 7.24166 1349.67 10.4885 1349.67 15.28H1351.67ZM1347.47 3.62464C1345.22 1.55375 1342.33 0.519998 1339.03 0.519998V2.52C1341.89 2.52 1344.28 3.40625 1346.11 5.09536L1347.47 3.62464ZM1339.07 7.64C1340.22 7.64 1341.2 8.22502 1341.95 9.46163C1342.71 10.7293 1343.19 12.6509 1343.19 15.12H1345.19C1345.19 12.4291 1344.67 10.1107 1343.66 8.42837C1342.62 6.71497 1341.05 5.64 1339.07 5.64V7.64ZM1343.19 15.12C1343.19 16.9277 1342.81 18.9038 1342.2 20.2716L1344.03 21.0884C1344.77 19.4162 1345.19 17.1523 1345.19 15.12H1343.19ZM1342.2 20.2678C1341.58 21.641 1340.31 22.48 1339.07 22.48V24.48C1341.2 24.48 1343.12 23.079 1344.02 21.0922L1342.2 20.2678ZM1339.07 22.48C1337.84 22.48 1336.56 21.641 1335.94 20.2678L1334.12 21.0922C1335.02 23.079 1336.95 24.48 1339.07 24.48V22.48ZM1335.95 20.2804C1335.33 18.8658 1334.95 16.9253 1334.95 15.04H1332.95C1332.95 17.1547 1333.37 19.3742 1334.12 21.0796L1335.95 20.2804ZM1334.95 15.04C1334.95 12.6381 1335.44 10.7357 1336.21 9.47004C1336.97 8.22892 1337.96 7.64 1339.07 7.64V5.64C1337.11 5.64 1335.54 6.73108 1334.5 8.42996C1333.48 10.1043 1332.95 12.4019 1332.95 15.04H1334.95ZM1366.77 22.52H1367.77V21.52H1366.77V22.52ZM1366.77 28H1365.77V29H1366.77V28ZM1373.05 28V29H1374.05V28H1373.05ZM1373.05 22.52V21.52H1372.05V22.52H1373.05ZM1377.17 22.52V23.52H1378.17V22.52H1377.17ZM1377.17 17.64H1378.17V16.64H1377.17V17.64ZM1373.05 17.64H1372.05V18.64H1373.05V17.64ZM1373.05 2.12H1374.05V1.12H1373.05V2.12ZM1366.12 2.12V1.12H1365.66L1365.36 1.47193L1366.12 2.12ZM1353.56 16.88L1352.8 16.2319L1352.56 16.5121V16.88H1353.56ZM1353.56 22.52H1352.56V23.52H1353.56V22.52ZM1366.77 17.64V18.64H1367.77V17.64H1366.77ZM1359.48 17.64L1358.73 16.9886L1357.31 18.64H1359.48V17.64ZM1366.77 9.16H1367.77V6.45996L1366.01 8.50862L1366.77 9.16ZM1365.77 22.52V28H1367.77V22.52H1365.77ZM1366.77 29L1373.05 29V27L1366.77 27V29ZM1374.05 28V22.52H1372.05V28H1374.05ZM1373.05 23.52H1377.17V21.52H1373.05V23.52ZM1378.17 22.52V17.64H1376.17V22.52H1378.17ZM1377.17 16.64H1373.05V18.64H1377.17V16.64ZM1374.05 17.64V2.12H1372.05V17.64H1374.05ZM1373.05 1.12L1366.12 1.12V3.12L1373.05 3.12V1.12ZM1365.36 1.47193L1352.8 16.2319L1354.33 17.5281L1366.89 2.76807L1365.36 1.47193ZM1352.56 16.88V22.52H1354.56V16.88H1352.56ZM1353.56 23.52H1366.77V21.52H1353.56V23.52ZM1366.77 16.64H1359.48V18.64H1366.77V16.64ZM1360.24 18.2914L1367.52 9.81138L1366.01 8.50862L1358.73 16.9886L1360.24 18.2914ZM1365.77 9.16V17.64H1367.77V9.16H1365.77ZM1404.89 22.52H1405.89V21.52H1404.89V22.52ZM1404.89 28H1403.89V29H1404.89V28ZM1411.17 28V29H1412.17V28H1411.17ZM1411.17 22.52V21.52H1410.17V22.52H1411.17ZM1415.29 22.52V23.52H1416.29V22.52H1415.29ZM1415.29 17.64H1416.29V16.64H1415.29V17.64ZM1411.17 17.64H1410.17V18.64H1411.17V17.64ZM1411.17 2.12H1412.17V1.12H1411.17V2.12ZM1404.25 2.12V1.12H1403.79L1403.49 1.47193L1404.25 2.12ZM1391.69 16.88L1390.93 16.2319L1390.69 16.5121V16.88L1391.69 16.88ZM1391.69 22.52L1390.69 22.52V23.52L1391.69 23.52V22.52ZM1404.89 17.64V18.64H1405.89V17.64H1404.89ZM1397.61 17.64L1396.85 16.9886L1395.43 18.64H1397.61V17.64ZM1404.89 9.16H1405.89V6.45996L1404.13 8.50862L1404.89 9.16ZM1403.89 22.52V28H1405.89V22.52H1403.89ZM1404.89 29H1411.17V27H1404.89V29ZM1412.17 28V22.52H1410.17V28H1412.17ZM1411.17 23.52L1415.29 23.52V21.52L1411.17 21.52V23.52ZM1416.29 22.52V17.64H1414.29V22.52H1416.29ZM1415.29 16.64L1411.17 16.64V18.64L1415.29 18.64V16.64ZM1412.17 17.64V2.12L1410.17 2.12V17.64H1412.17ZM1411.17 1.12L1404.25 1.12V3.12L1411.17 3.12V1.12ZM1403.49 1.47193L1390.93 16.2319L1392.45 17.5281L1405.01 2.76807L1403.49 1.47193ZM1390.69 16.88V22.52L1392.69 22.52V16.88L1390.69 16.88ZM1391.69 23.52H1404.89V21.52H1391.69V23.52ZM1404.89 16.64H1397.61V18.64H1404.89V16.64ZM1398.37 18.2914L1405.65 9.81138L1404.13 8.50862L1396.85 16.9886L1398.37 18.2914ZM1403.89 9.16V17.64H1405.89V9.16H1403.89ZM1421.74 4.36L1422.41 5.10101L1422.42 5.09593L1421.74 4.36ZM1437.18 4.36L1437.86 3.6252L1437.86 3.62464L1437.18 4.36ZM1433.5 20.68L1434.41 21.0922L1434.42 21.0884L1433.5 20.68ZM1425.42 20.68L1424.51 21.0796L1424.51 21.0922L1425.42 20.68ZM1429.42 0.519998C1426.24 0.519998 1423.27 1.59705 1421.07 3.62407L1422.42 5.09593C1424.22 3.44295 1426.69 2.52 1429.42 2.52V0.519998ZM1421.07 3.61901C1418.23 6.19226 1416.86 10.189 1416.86 15.08H1418.86C1418.86 10.531 1420.13 7.16773 1422.41 5.10099L1421.07 3.61901ZM1416.86 15.08C1416.86 19.4286 1418.02 23.063 1420.22 25.6265C1422.44 28.2078 1425.63 29.6 1429.46 29.6V27.6C1426.14 27.6 1423.53 26.4122 1421.74 24.3235C1419.93 22.217 1418.86 19.0914 1418.86 15.08H1416.86ZM1429.46 29.6C1433.26 29.6 1436.45 28.1951 1438.67 25.6415C1440.88 23.1027 1442.06 19.5195 1442.06 15.28H1440.06C1440.06 19.1605 1438.98 22.2373 1437.16 24.3285C1435.36 26.4049 1432.74 27.6 1429.46 27.6V29.6ZM1442.06 15.28C1442.06 10.1515 1440.74 6.27833 1437.86 3.6252L1436.5 5.0948C1438.83 7.24166 1440.06 10.4885 1440.06 15.28H1442.06ZM1437.86 3.62464C1435.61 1.55375 1432.72 0.519998 1429.42 0.519998V2.52C1432.28 2.52 1434.67 3.40625 1436.51 5.09536L1437.86 3.62464ZM1429.46 7.64C1430.61 7.64 1431.59 8.22502 1432.34 9.46163C1433.1 10.7293 1433.58 12.6509 1433.58 15.12L1435.58 15.12C1435.58 12.4291 1435.06 10.1107 1434.05 8.42837C1433.02 6.71497 1431.44 5.64 1429.46 5.64V7.64ZM1433.58 15.12C1433.58 16.9277 1433.2 18.9038 1432.59 20.2716L1434.42 21.0884C1435.16 19.4162 1435.58 17.1523 1435.58 15.12L1433.58 15.12ZM1432.59 20.2678C1431.97 21.641 1430.7 22.48 1429.46 22.48V24.48C1431.59 24.48 1433.52 23.079 1434.41 21.0922L1432.59 20.2678ZM1429.46 22.48C1428.23 22.48 1426.96 21.641 1426.33 20.2678L1424.51 21.0922C1425.41 23.079 1427.34 24.48 1429.46 24.48V22.48ZM1426.34 20.2804C1425.72 18.8658 1425.34 16.9253 1425.34 15.04H1423.34C1423.34 17.1547 1423.76 19.3742 1424.51 21.0796L1426.34 20.2804ZM1425.34 15.04C1425.34 12.6381 1425.83 10.7357 1426.6 9.47004C1427.36 8.22892 1428.35 7.64 1429.46 7.64V5.64C1427.5 5.64 1425.93 6.73108 1424.89 8.42996C1423.87 10.1043 1423.34 12.4019 1423.34 15.04H1425.34ZM1457.16 22.52L1458.16 22.52V21.52L1457.16 21.52V22.52ZM1457.16 28H1456.16V29H1457.16V28ZM1463.44 28V29H1464.44V28H1463.44ZM1463.44 22.52V21.52H1462.44V22.52H1463.44ZM1467.56 22.52V23.52H1468.56V22.52H1467.56ZM1467.56 17.64H1468.56V16.64H1467.56V17.64ZM1463.44 17.64H1462.44V18.64H1463.44V17.64ZM1463.44 2.12H1464.44V1.12H1463.44V2.12ZM1456.52 2.12V1.12H1456.05L1455.75 1.47193L1456.52 2.12ZM1443.96 16.88L1443.19 16.2319L1442.96 16.5121V16.88H1443.96ZM1443.96 22.52H1442.96V23.52H1443.96V22.52ZM1457.16 17.64V18.64L1458.16 18.64V17.64L1457.16 17.64ZM1449.88 17.64L1449.12 16.9886L1447.7 18.64H1449.88V17.64ZM1457.16 9.16H1458.16V6.45996L1456.4 8.50862L1457.16 9.16ZM1456.16 22.52V28L1458.16 28V22.52L1456.16 22.52ZM1457.16 29L1463.44 29V27L1457.16 27V29ZM1464.44 28V22.52H1462.44V28H1464.44ZM1463.44 23.52H1467.56V21.52H1463.44V23.52ZM1468.56 22.52V17.64H1466.56V22.52H1468.56ZM1467.56 16.64H1463.44V18.64H1467.56V16.64ZM1464.44 17.64V2.12H1462.44V17.64H1464.44ZM1463.44 1.12L1456.52 1.12V3.12L1463.44 3.12V1.12ZM1455.75 1.47193L1443.19 16.2319L1444.72 17.5281L1457.28 2.76807L1455.75 1.47193ZM1442.96 16.88V22.52H1444.96V16.88H1442.96ZM1443.96 23.52H1457.16V21.52H1443.96V23.52ZM1457.16 16.64H1449.88V18.64H1457.16V16.64ZM1450.63 18.2914L1457.91 9.81138L1456.4 8.50862L1449.12 16.9886L1450.63 18.2914ZM1456.16 9.16V17.64L1458.16 17.64V9.16H1456.16ZM1495.28 22.52H1496.28V21.52H1495.28V22.52ZM1495.28 28H1494.28V29H1495.28V28ZM1501.56 28V29H1502.56V28H1501.56ZM1501.56 22.52V21.52L1500.56 21.52V22.52L1501.56 22.52ZM1505.68 22.52V23.52H1506.68V22.52H1505.68ZM1505.68 17.64H1506.68V16.64H1505.68V17.64ZM1501.56 17.64L1500.56 17.64V18.64L1501.56 18.64V17.64ZM1501.56 2.12H1502.56V1.12H1501.56V2.12ZM1494.64 2.12V1.12H1494.18L1493.88 1.47193L1494.64 2.12ZM1482.08 16.88L1481.32 16.2319L1481.08 16.5121V16.88H1482.08ZM1482.08 22.52H1481.08V23.52H1482.08V22.52ZM1495.28 17.64V18.64H1496.28V17.64H1495.28ZM1488 17.64L1487.24 16.9886L1485.82 18.64H1488V17.64ZM1495.28 9.16L1496.28 9.16V6.45996L1494.52 8.50862L1495.28 9.16ZM1494.28 22.52V28H1496.28V22.52H1494.28ZM1495.28 29L1501.56 29V27L1495.28 27V29ZM1502.56 28V22.52L1500.56 22.52V28L1502.56 28ZM1501.56 23.52H1505.68V21.52H1501.56V23.52ZM1506.68 22.52V17.64H1504.68V22.52H1506.68ZM1505.68 16.64H1501.56V18.64H1505.68V16.64ZM1502.56 17.64V2.12H1500.56V17.64L1502.56 17.64ZM1501.56 1.12L1494.64 1.12V3.12L1501.56 3.12V1.12ZM1493.88 1.47193L1481.32 16.2319L1482.84 17.5281L1495.4 2.76807L1493.88 1.47193ZM1481.08 16.88V22.52H1483.08V16.88H1481.08ZM1482.08 23.52H1495.28V21.52H1482.08V23.52ZM1495.28 16.64H1488V18.64H1495.28V16.64ZM1488.76 18.2914L1496.04 9.81138L1494.52 8.50862L1487.24 16.9886L1488.76 18.2914ZM1494.28 9.16V17.64H1496.28V9.16L1494.28 9.16ZM1512.13 4.36L1512.8 5.10101L1512.81 5.09593L1512.13 4.36ZM1527.57 4.36L1528.25 3.6252L1528.25 3.62464L1527.57 4.36ZM1523.89 20.68L1524.8 21.0922L1524.81 21.0884L1523.89 20.68ZM1515.81 20.68L1514.9 21.0796L1514.9 21.0922L1515.81 20.68ZM1519.81 0.519998C1516.63 0.519998 1513.66 1.59705 1511.46 3.62407L1512.81 5.09593C1514.61 3.44295 1517.08 2.52 1519.81 2.52V0.519998ZM1511.46 3.61901C1508.62 6.19226 1507.25 10.189 1507.25 15.08H1509.25C1509.25 10.531 1510.52 7.16773 1512.8 5.10099L1511.46 3.61901ZM1507.25 15.08C1507.25 19.4286 1508.41 23.063 1510.61 25.6265C1512.83 28.2078 1516.02 29.6 1519.85 29.6V27.6C1516.53 27.6 1513.92 26.4122 1512.13 24.3235C1510.32 22.217 1509.25 19.0914 1509.25 15.08H1507.25ZM1519.85 29.6C1523.65 29.6 1526.84 28.1951 1529.06 25.6415C1531.27 23.1027 1532.45 19.5195 1532.45 15.28H1530.45C1530.45 19.1605 1529.37 22.2373 1527.55 24.3285C1525.75 26.4049 1523.13 27.6 1519.85 27.6V29.6ZM1532.45 15.28C1532.45 10.1515 1531.13 6.27833 1528.25 3.6252L1526.9 5.0948C1529.22 7.24166 1530.45 10.4885 1530.45 15.28H1532.45ZM1528.25 3.62464C1526 1.55375 1523.11 0.519998 1519.81 0.519998V2.52C1522.67 2.52 1525.06 3.40625 1526.9 5.09536L1528.25 3.62464ZM1519.85 7.64C1521 7.64 1521.98 8.22502 1522.73 9.46163C1523.49 10.7293 1523.97 12.6509 1523.97 15.12H1525.97C1525.97 12.4291 1525.45 10.1107 1524.44 8.42837C1523.41 6.71497 1521.83 5.64 1519.85 5.64V7.64ZM1523.97 15.12C1523.97 16.9277 1523.59 18.9038 1522.98 20.2716L1524.81 21.0884C1525.55 19.4162 1525.97 17.1523 1525.97 15.12H1523.97ZM1522.98 20.2678C1522.36 21.641 1521.09 22.48 1519.85 22.48V24.48C1521.98 24.48 1523.91 23.079 1524.8 21.0922L1522.98 20.2678ZM1519.85 22.48C1518.62 22.48 1517.35 21.641 1516.72 20.2678L1514.9 21.0922C1515.8 23.079 1517.73 24.48 1519.85 24.48V22.48ZM1516.73 20.2804C1516.11 18.8658 1515.73 16.9253 1515.73 15.04H1513.73C1513.73 17.1547 1514.15 19.3742 1514.9 21.0796L1516.73 20.2804ZM1515.73 15.04C1515.73 12.6381 1516.22 10.7357 1516.99 9.47004C1517.75 8.22892 1518.74 7.64 1519.85 7.64V5.64C1517.89 5.64 1516.32 6.73108 1515.28 8.42996C1514.26 10.1043 1513.73 12.4019 1513.73 15.04H1515.73ZM1547.55 22.52H1548.55V21.52H1547.55V22.52ZM1547.55 28H1546.55V29H1547.55V28ZM1553.83 28V29H1554.83V28H1553.83ZM1553.83 22.52V21.52H1552.83V22.52H1553.83ZM1557.95 22.52V23.52H1558.95V22.52H1557.95ZM1557.95 17.64H1558.95V16.64H1557.95V17.64ZM1553.83 17.64H1552.83V18.64H1553.83V17.64ZM1553.83 2.12L1554.83 2.12V1.12L1553.83 1.12V2.12ZM1546.91 2.12V1.12H1546.44L1546.14 1.47193L1546.91 2.12ZM1534.35 16.88L1533.58 16.2319L1533.35 16.5121V16.88H1534.35ZM1534.35 22.52H1533.35V23.52H1534.35V22.52ZM1547.55 17.64V18.64H1548.55V17.64H1547.55ZM1540.27 17.64L1539.51 16.9886L1538.09 18.64H1540.27V17.64ZM1547.55 9.16H1548.55V6.45996L1546.79 8.50862L1547.55 9.16ZM1546.55 22.52V28H1548.55V22.52H1546.55ZM1547.55 29H1553.83V27H1547.55V29ZM1554.83 28V22.52H1552.83V28H1554.83ZM1553.83 23.52H1557.95V21.52H1553.83V23.52ZM1558.95 22.52V17.64H1556.95V22.52H1558.95ZM1557.95 16.64H1553.83V18.64H1557.95V16.64ZM1554.83 17.64V2.12L1552.83 2.12V17.64H1554.83ZM1553.83 1.12L1546.91 1.12V3.12L1553.83 3.12V1.12ZM1546.14 1.47193L1533.58 16.2319L1535.11 17.5281L1547.67 2.76807L1546.14 1.47193ZM1533.35 16.88V22.52H1535.35V16.88H1533.35ZM1534.35 23.52L1547.55 23.52V21.52L1534.35 21.52V23.52ZM1547.55 16.64L1540.27 16.64V18.64L1547.55 18.64V16.64ZM1541.03 18.2914L1548.31 9.81138L1546.79 8.50862L1539.51 16.9886L1541.03 18.2914ZM1546.55 9.16V17.64H1548.55V9.16H1546.55Z" fill="white"/>
</svg>
