<svg width="102" height="44" viewBox="0 0 102 44" fill="none" xmlns="http://www.w3.org/2000/svg">
<g clip-path="url(#clip0)">
<path d="M18.4103 22.6661C18.5262 22.7236 18.6473 22.7759 18.7579 22.7759C18.8474 22.7759 18.9369 22.7445 19.0265 22.6556L19.3108 22.1486L19.3161 22.1224C19.3161 22.0597 19.2476 22.0179 19.1265 21.9342C19.0844 21.9081 19.0423 21.8767 19.0212 21.861L19.0107 21.8506H18.9896C18.642 21.8506 18.4472 21.9708 18.3261 22.2688V22.274C18.2945 22.3629 18.226 22.5772 18.4103 22.6661Z" fill="#4E403B" stroke="#4E403B" stroke-width="0.1" stroke-miterlimit="10"/>
<path d="M28.2106 30.6276C28.3212 30.0891 28.4318 29.5298 28.6003 28.9809C29.9116 23.5757 31.8653 18.0659 34.9302 11.1133C35.0987 10.7473 35.2883 10.4023 35.4673 10.0678C35.5885 9.84298 35.7096 9.62865 35.8202 9.40387C36.1783 8.51519 36.6891 8.1754 37.5422 8.27995C37.8055 8.31655 38.0741 8.30609 38.3321 8.29041C38.4585 8.28518 38.5902 8.27995 38.7165 8.27995C42.1606 8.27995 45.7205 8.27995 49.2225 8.33746C49.7913 8.33746 50.281 8.33746 50.7813 8.27995C51.0393 8.27995 51.2289 8.15972 51.2763 7.95062C51.2763 7.62651 51.0709 7.51151 50.8972 7.51151L50.755 7.49583C50.202 7.44355 49.6807 7.3965 49.1119 7.3965H38.3901C38.29 7.38082 38.1847 7.38605 38.0741 7.39128C37.7528 7.40696 37.4211 7.41219 37.1104 7.00444C38.3795 4.75138 39.5223 3.10994 40.8125 1.69328C41.1232 1.33259 41.3707 1.43714 41.7446 1.59396C41.8341 1.66715 42.0764 1.59919 42.1448 1.53123C42.287 1.39009 42.3555 1.12871 42.3397 0.830744C42.3239 0.543231 42.2238 0.297537 42.0869 0.182532C41.8236 -0.0213411 41.4813 -0.0265686 41.1284 0.18776C41.0021 0.31322 40.8757 0.433453 40.744 0.558913C40.3543 0.930067 39.9594 1.3169 39.6223 1.7351C38.3585 3.23017 37.3316 4.7357 36.5574 6.21509C36.1045 7.06717 35.5042 7.40173 34.4352 7.40173C33.1397 7.36514 31.8179 7.37559 30.5435 7.39128C29.9063 7.3965 29.248 7.40173 28.595 7.40173C27.7788 7.44355 26.5728 7.56378 25.567 8.12836L25.5512 8.13881C25.3353 8.30086 25.1141 8.46292 24.9508 8.6302C24.8613 8.71906 24.9561 8.93339 24.993 9.01181C24.9982 9.09022 25.0772 9.15818 25.1562 9.15818C25.3827 9.15818 25.5617 9.15818 25.7355 9.04317C26.7887 8.52042 27.9841 8.27473 29.4903 8.27473H34.1561C34.2035 8.27473 34.2509 8.27473 34.3035 8.27473C34.5826 8.2695 34.8407 8.26427 35.104 8.46814C35.0934 8.8968 34.8986 9.2575 34.7037 9.60774C34.609 9.78025 34.5142 9.95276 34.4404 10.1305C31.9811 15.5044 30.0853 20.4757 28.674 25.2171C27.0889 26.6494 22.639 28.8189 19.2581 29.4618C19.1002 29.4775 18.9369 29.5037 18.7684 29.5246C18.4156 29.5716 18.0469 29.6239 17.7099 29.6239C16.9305 29.5716 16.3407 29.2998 16.0089 28.8293C15.6614 28.3432 15.5929 27.6688 15.8141 26.8795C16.0511 26.0065 16.5092 25.3321 17.1833 24.8669C17.3307 24.7571 17.415 24.6316 17.4308 24.5062C17.4466 24.3859 17.4045 24.2605 17.2991 24.1298C17.2201 24.0461 17.1253 24.0095 17.02 24.0095C16.8252 24.0095 16.6461 24.1559 16.5671 24.2343C16.1248 24.5323 15.7614 24.8878 15.477 25.2955C13.4285 25.3217 12.2173 25.1857 11.0693 24.4225C9.66322 23.492 9.57896 22.4779 9.5421 22.0388C9.52103 21.8192 9.48943 21.4847 9.15767 21.4062C8.82063 21.3017 8.60472 21.5631 8.43094 21.7722L8.39934 21.8088C4.96581 26.1215 1.9957 29.3573 1.14785 29.718C1.13206 29.718 1.12152 29.7128 1.12152 29.718C1.08993 29.6866 0.826619 29.3468 1.34797 26.4769C1.45856 25.8653 1.71133 24.8721 2.26428 23.6018C2.28534 23.5548 2.29587 23.5338 2.30114 23.5129C2.3854 23.2777 2.26428 23.0215 2.0273 22.9327C1.91145 22.8909 1.78506 22.8961 1.67447 22.9431C1.56388 22.9954 1.47436 23.0843 1.43223 23.1993L1.42169 23.2306C1.41643 23.2516 1.40063 23.2882 1.38483 23.3352C1.23738 23.7377 0.795023 24.9505 0.452723 26.2365C-0.147618 28.5209 -0.116021 29.8905 0.542247 30.4237C0.700232 30.5596 0.910878 30.6328 1.13206 30.6328H1.26898C2.54338 30.4708 4.63404 28.0138 8.73637 22.8543C8.99968 23.7691 9.61055 24.5532 10.5585 25.1857C11.8381 26.0274 13.1599 26.1894 15.0031 26.1947C14.8293 26.6651 14.7292 27.1827 14.7082 27.7472C14.6555 28.8607 15.3296 29.8069 16.5197 30.2826C16.8936 30.4498 17.2781 30.5283 17.7099 30.5283C17.8363 30.5283 17.9627 30.523 18.0943 30.5074C19.1054 30.5074 20.1218 30.2251 21.1118 29.9532C23.0603 29.3834 26.399 28.1759 28.1948 26.8795C28.0052 27.559 27.8262 28.2334 27.6629 28.9025C27.4681 29.7755 27.3153 30.6851 27.1679 31.5685L27.1047 31.9449C26.9836 33.0584 27.2521 34.0568 27.8946 34.9037L27.8999 34.9089C27.9947 35.0082 28.2106 35.1076 28.358 35.1076C28.3949 35.1076 28.4212 35.1023 28.4476 35.0867C28.5582 35.0605 28.6424 34.9821 28.6845 34.8776C28.7319 34.7573 28.7161 34.6162 28.6477 34.5116C27.7472 33.1995 27.942 31.7515 28.2106 30.6276Z" fill="#4E403B" stroke="#4E403B" stroke-width="0.1" stroke-miterlimit="10"/>
<path d="M67.7648 22.6664C67.8859 22.7292 68.0018 22.7762 68.1124 22.7762C68.2019 22.7762 68.2914 22.7448 68.381 22.656L68.6706 22.1489L68.6759 22.1228C68.6759 22.06 68.6074 22.0182 68.4863 21.9346C68.4441 21.9084 68.402 21.8771 68.381 21.8614L68.3652 21.8457H68.3441C67.9965 21.8457 67.8017 21.9659 67.6858 22.2639V22.2691C67.6384 22.4155 67.6016 22.588 67.7648 22.6664Z" fill="#4E403B" stroke="#4E403B" stroke-width="0.1" stroke-miterlimit="10"/>
<path d="M101.916 25.2279C101.831 25.1286 101.689 25.1077 101.589 25.1077C100.341 25.0031 99.1456 25.3325 97.9976 25.6461L97.7396 25.7141C95.2908 26.3727 92.8578 27.2719 90.5091 28.1396L89.0715 28.6363C88.9767 28.6572 88.903 28.6415 88.845 28.5944C88.7713 28.5317 88.745 28.4324 88.745 28.3592C88.745 28.1344 88.824 27.9462 88.9135 27.7214C88.9293 27.6849 88.9451 27.643 88.9609 27.6012C89.0188 27.3973 89.0873 27.1935 89.1505 26.9896C89.3348 26.4146 89.5296 25.8186 89.5718 25.1547C89.5718 24.8254 89.4612 24.5693 89.2611 24.4281C89.0662 24.2922 88.8029 24.2765 88.4975 24.3863C88.2131 24.4961 87.9445 24.6268 87.6812 24.747C87.4232 24.8672 87.1599 24.9927 86.8755 25.1077C85.896 25.5938 84.8849 26.0957 83.7895 26.2577C83.6842 26.2577 83.5368 26.2055 83.4946 26.1636C83.4209 26.0905 83.4209 26.0173 83.4314 25.9702C83.4525 25.897 83.5104 25.8291 83.5894 25.8082C84.1792 25.5416 84.4531 25.0711 84.4531 24.3236C84.4531 24.1145 84.3056 23.942 84.0897 23.8897C83.958 23.8269 83.7685 23.8844 83.7 23.9524C82.9943 24.5013 82.5941 25.2279 82.4045 26.3048C82.3729 26.5191 82.4519 26.7544 82.6099 26.9373C82.7521 27.0994 82.9364 27.1935 83.126 27.1935C83.5104 27.1935 83.9107 27.1935 84.3109 27.0837C84.7269 26.9425 85.1535 26.7753 85.5642 26.6132C85.975 26.4512 86.3963 26.2839 86.8123 26.148C87.0071 26.0905 87.1915 25.9911 87.3652 25.897C87.6917 25.7193 88.0288 25.5416 88.4659 25.5938C88.4922 26.1846 88.2974 26.7021 88.092 27.2457C87.9866 27.528 87.8761 27.8208 87.8023 28.124C87.4916 29.1015 86.9545 29.6661 86.0592 29.9641C85.2904 30.1993 84.6163 30.5182 83.9001 30.8527C83.7843 30.905 83.6684 30.9625 83.5473 31.0148C81.325 32.0707 79.4871 33.1319 77.8809 34.2977C77.1331 33.0431 77.3069 31.6891 77.5649 30.6279L77.5702 30.5914C77.6808 30.0634 77.7914 29.5145 77.9546 28.9761C79.2659 23.5708 81.2197 18.0558 84.2898 11.1084C84.4583 10.7425 84.6479 10.3922 84.8322 10.0524C84.9533 9.82766 85.0692 9.61856 85.1798 9.399C85.5379 8.51032 86.054 8.17054 86.9018 8.27509C87.1651 8.31168 87.4284 8.30122 87.6917 8.28554C87.8181 8.28031 87.9498 8.27509 88.0762 8.27509C91.5202 8.27509 95.0801 8.27508 98.5821 8.33259C99.1509 8.33259 99.6406 8.33259 100.136 8.27509C100.394 8.27509 100.583 8.15485 100.631 7.94575C100.631 7.62165 100.425 7.50664 100.252 7.50664L100.104 7.49096C99.5511 7.43868 99.0298 7.39163 98.4663 7.39163H87.7497C87.6444 7.37595 87.5443 7.38118 87.4337 7.38641C87.1177 7.40209 86.786 7.40732 86.47 6.99957C87.7391 4.75174 88.8819 3.1103 90.1721 1.68841C90.4828 1.32772 90.7303 1.43227 91.1042 1.58909C91.1569 1.63091 91.2411 1.62046 91.3096 1.61C91.3728 1.59432 91.4623 1.56818 91.5044 1.52636C91.6466 1.38522 91.7151 1.12384 91.6993 0.825875C91.6835 0.538361 91.5834 0.292668 91.4465 0.177662C91.1832 -0.0314382 90.8409 -0.0314382 90.4881 0.18289C90.3617 0.30835 90.2353 0.428583 90.1089 0.554044C89.7192 0.930425 89.319 1.31726 88.9872 1.73023C87.7233 3.22008 86.6964 4.7256 85.9223 6.21022C85.4694 7.0623 84.8744 7.39686 83.8001 7.39686C82.5046 7.36027 81.1828 7.37595 79.9084 7.38641C79.2712 7.39163 78.6129 7.39686 77.9599 7.39686C77.1437 7.43868 75.9377 7.55892 74.9319 8.12349L74.9161 8.13394C74.7002 8.296 74.479 8.45805 74.3157 8.62533C74.2262 8.7142 74.3157 8.92852 74.3579 9.00694C74.3684 9.08535 74.4421 9.15331 74.5211 9.15331C74.7476 9.15331 74.9266 9.15331 75.1004 9.0383C76.1536 8.51555 77.349 8.26986 78.8552 8.26986H83.521C83.5684 8.26986 83.621 8.26986 83.6684 8.26986C83.9423 8.26463 84.2056 8.25418 84.4689 8.46328C84.4583 8.8867 84.2635 9.25263 84.0686 9.60287C83.9738 9.77538 83.8791 9.94789 83.8053 10.1309C81.346 15.5047 79.4502 20.4761 78.0389 25.2175C76.4591 26.6498 72.0092 28.8192 68.623 29.4622C68.465 29.4779 68.3018 29.504 68.1333 29.5249C67.7804 29.572 67.4118 29.6243 67.0748 29.6243C66.2954 29.572 65.7056 29.3002 65.3738 28.8297C65.0263 28.3435 64.9578 27.6692 65.179 26.8798C65.4107 26.0068 65.8741 25.3325 66.5482 24.8672C66.6956 24.7574 66.7799 24.632 66.8009 24.5065C66.8167 24.3863 66.7746 24.2608 66.664 24.1301C66.585 24.0465 66.4902 24.0099 66.3849 24.0099C66.1848 24.0099 66.011 24.1563 65.932 24.2347C65.4159 24.5849 65.0105 25.0136 64.7103 25.5154C62.983 27.4758 61.045 29.0492 58.8754 30.7482C57.6221 31.6682 55.9316 32.7974 53.9463 33.3306C51.8293 33.9422 50.497 33.3358 49.6175 31.3755C48.9645 29.9275 48.717 28.3592 48.8434 26.4355C48.9013 25.8395 49.0856 25.3691 49.4437 24.9195C51.1236 22.7605 52.6824 20.6486 54.336 18.4112L54.9468 17.5801C56.6899 15.2486 58.096 12.9067 59.1229 10.617C59.4705 9.84334 59.7812 9.03308 60.0866 8.25418C60.1761 8.02939 60.2604 7.80461 60.3499 7.57983C60.6027 6.83229 60.6764 6.12135 60.5764 5.45745C60.4658 4.79356 59.9497 4.41195 59.2388 4.47468C58.5068 4.59491 57.9222 5.04448 57.5431 5.36859C56.5372 6.2259 55.6314 7.33413 54.6941 8.85534C52.0873 13.0583 50.1231 17.3657 48.8539 21.668C48.4642 22.9801 48.2062 24.1563 48.0587 25.2907C47.7586 25.4266 47.4584 25.5625 47.1635 25.6984C46.3314 26.08 45.5468 26.4407 44.7463 26.7805C42.8558 27.5542 40.8494 27.7789 38.785 27.4444L38.7376 27.4339L38.7061 27.4026C38.1742 27.298 37.6002 27.1726 37.2315 26.7021C37.0156 26.4146 37.1262 26.148 37.2473 25.8814L37.2263 25.8605C37.2895 25.7193 37.3527 25.5782 37.3685 25.4318V25.2697C37.3948 24.7888 37.2789 24.4177 37.0262 24.1824C36.7839 23.9524 36.41 23.8635 35.9519 23.9158C34.2983 24.1824 33.0502 25.1234 32.2498 26.7125C32.1602 26.8694 32.1602 27.0419 32.2498 27.1778C32.3551 27.3346 32.5552 27.4183 32.7764 27.3921C33.1134 27.3921 33.3767 27.2667 33.6506 27.1307C33.7769 27.068 33.9086 27.0053 34.0508 26.953C34.2404 26.8694 34.4299 26.7596 34.6301 26.6498C35.0671 26.4041 35.52 26.148 36.0625 26.0696L36.0888 26.0643L36.094 26.0905C36.1888 27.2144 36.8682 27.8365 38.2953 28.1083C39.3064 28.3435 40.2438 28.4324 41.1811 28.3853C43.7458 28.1658 45.9575 27.2039 47.9692 26.1532C47.9323 26.6289 47.9113 27.1046 47.9113 27.5855C47.9113 29.2531 48.2694 30.7848 48.975 32.1335C49.8282 33.6965 51.0236 34.4649 52.6087 34.4649C53.0194 34.4649 53.4565 34.4127 53.9252 34.3081C54.9521 34.0676 56.0685 33.5919 57.3271 32.8706C59.5653 31.5323 61.698 29.8229 64.1152 27.4287C64.1047 27.5333 64.0941 27.6378 64.0889 27.7476C64.0362 28.861 64.7103 29.8072 65.9004 30.2829C66.2743 30.4502 66.6588 30.5286 67.0906 30.5286C67.217 30.5286 67.3434 30.5234 67.475 30.5077C68.4861 30.5077 69.5077 30.2254 70.4925 29.9536C72.441 29.3838 75.7797 28.1762 77.5755 26.8798C77.3859 27.5594 77.2068 28.2337 77.0436 28.9029C76.8488 29.7811 76.6908 30.7064 76.5433 31.595L76.4854 31.9453C76.3695 33.0221 76.617 33.9892 77.2174 34.8204C76.9541 35.0243 76.7013 35.2282 76.4485 35.4373C75.3005 36.3468 74.2999 37.4185 73.5469 38.5372C72.9044 39.4938 72.52 40.3668 72.3725 41.2032C72.204 42.0605 72.3409 42.7715 72.757 43.2576C73.1572 43.7229 73.7997 43.9686 74.6264 43.9686C74.6686 43.9686 74.716 43.9686 74.7581 43.9686C75.1057 43.9686 75.4532 43.9111 75.7165 43.8588C76.6644 43.6131 77.5491 43.1688 78.5129 42.4735C80.2138 41.2764 81.7041 39.865 83.0786 38.1608C84.8217 36.0855 86.1698 33.9526 87.202 31.6369C87.7181 30.4973 88.3869 29.8856 89.5086 29.5145C90.1932 29.2636 90.8883 29.0022 91.5571 28.7513C94.7642 27.5437 98.0818 26.2943 101.621 25.9284C101.926 25.8239 101.989 25.6357 101.989 25.505C101.989 25.39 101.974 25.2959 101.916 25.2279ZM36.2889 24.794L34.2298 25.9545C34.1877 25.9702 34.1508 25.9807 34.1192 25.9964C34.0613 26.0173 34.0244 26.033 33.9981 26.033C33.9823 26.033 33.9718 26.0277 33.9613 26.0173C33.9402 25.9911 33.956 25.9545 34.0297 25.8605L34.1034 25.7873C34.6406 25.2541 35.1461 24.747 36.2731 24.747H36.3732L36.2889 24.794ZM73.1782 41.6632C73.2836 40.8791 73.5995 40.1107 74.1156 39.3684C74.9477 38.0197 76.0536 36.8173 77.4912 35.683C79.7715 33.9213 82.4783 32.4105 85.7538 31.0566C85.9013 31.0096 86.1066 31.0043 86.4858 31.0043C84.2424 35.5627 81.7147 38.8299 78.5339 41.2869C77.8914 41.8253 77.1753 42.2696 76.2115 42.714C75.6059 42.9858 75.0056 43.0956 74.3473 43.0381C73.9576 43.0119 73.6417 42.8708 73.4416 42.6303C73.2414 42.3899 73.1519 42.0553 73.1782 41.6632ZM49.6702 22.1437C49.6912 22.0705 49.707 21.9921 49.7228 21.9189C51.1974 17.188 53.2354 12.7707 55.7736 8.80306C56.3687 7.91439 57.048 6.97866 57.9854 6.1684C58.3488 5.85997 58.6858 5.57246 59.1282 5.46268C59.1703 5.45223 59.2124 5.45223 59.2493 5.45223C59.4441 5.45223 59.5811 5.55678 59.6179 5.75542C59.7127 6.28863 59.6443 6.82706 59.3967 7.43868C59.244 7.79938 59.1018 8.16531 58.9597 8.52601C58.6279 9.35718 58.2856 10.2093 57.9012 11.0195C57.0164 12.8805 55.9527 14.6579 54.7362 16.3098C54.0095 17.3082 53.2617 18.3067 52.5297 19.2738C51.8082 20.2304 51.0604 21.2236 50.3442 22.2116C50.3126 22.2482 50.2863 22.2901 50.2547 22.3266C50.0862 22.5462 49.9335 22.7396 49.6912 22.7919C49.5596 22.5619 49.6122 22.3685 49.6702 22.1437Z" fill="#4E403B" stroke="#4E403B" stroke-width="0.1" stroke-miterlimit="10"/>
</g>
<defs>
<clipPath id="clip0">
<rect width="102" height="44" fill="white"/>
</clipPath>
</defs>
</svg>
