<svg width="64" height="28" viewBox="0 0 64 28" fill="none" xmlns="http://www.w3.org/2000/svg">
<g clip-path="url(#clip0)">
<path d="M11.5519 14.424C11.6246 14.4606 11.7006 14.4938 11.77 14.4938C11.8262 14.4938 11.8823 14.4739 11.9385 14.4173L12.1169 14.0946L12.1202 14.078C12.1202 14.0381 12.0773 14.0115 12.0013 13.9583C11.9749 13.9416 11.9484 13.9217 11.9352 13.9117L11.9286 13.905H11.9154C11.6973 13.905 11.575 13.9815 11.499 14.1712V14.1745C11.4792 14.231 11.4363 14.3674 11.5519 14.424Z" fill="black" stroke="black" stroke-width="0.1" stroke-miterlimit="10"/>
<path d="M17.7011 19.4906C17.7705 19.1479 17.8398 18.792 17.9456 18.4427C18.7683 15.003 19.9942 11.4967 21.9173 7.07237C22.023 6.83951 22.142 6.61995 22.2543 6.40705C22.3303 6.264 22.4063 6.12761 22.4757 5.98457C22.7004 5.41905 23.0209 5.20282 23.5562 5.26935C23.7214 5.29264 23.8899 5.28598 24.0518 5.276C24.1311 5.27268 24.2137 5.26935 24.293 5.26935C26.454 5.26935 28.6877 5.26935 30.885 5.30594C31.2419 5.30594 31.5492 5.30594 31.8631 5.26935C32.025 5.26935 32.1439 5.19284 32.1737 5.05977C32.1737 4.85352 32.0448 4.78034 31.9358 4.78034L31.8466 4.77036C31.4996 4.73709 31.1725 4.70715 30.8156 4.70715H24.0882C24.0254 4.69717 23.9593 4.7005 23.8899 4.70383C23.6884 4.71381 23.4802 4.71713 23.2852 4.45766C24.0816 3.02389 24.7986 1.97934 25.6081 1.07783C25.8031 0.848297 25.9584 0.914829 26.193 1.01463C26.2492 1.0612 26.4012 1.01795 26.4441 0.974708C26.5333 0.88489 26.5763 0.71856 26.5664 0.528944C26.5565 0.345981 26.4937 0.18963 26.4078 0.116445C26.2425 -0.0132922 26.0278 -0.0166188 25.8064 0.119772C25.7271 0.19961 25.6478 0.276122 25.5652 0.355961C25.3207 0.592149 25.0728 0.838318 24.8614 1.10445C24.0684 2.05585 23.424 3.01391 22.9383 3.95534C22.6541 4.49758 22.2774 4.71048 21.6067 4.71048C20.7938 4.68719 19.9645 4.69385 19.1648 4.70383C18.765 4.70715 18.352 4.71048 17.9423 4.71048C17.4301 4.73709 16.6734 4.81361 16.0423 5.17288L16.0324 5.17953C15.8969 5.28266 15.7582 5.38578 15.6557 5.49223C15.5996 5.54878 15.659 5.68517 15.6822 5.73507C15.6855 5.78497 15.735 5.82822 15.7846 5.82822C15.9267 5.82822 16.039 5.82822 16.1481 5.75503C16.8089 5.42237 17.559 5.26602 18.504 5.26602H21.4316C21.4613 5.26602 21.491 5.26602 21.5241 5.26602C21.6992 5.2627 21.8611 5.25937 22.0263 5.38911C22.0197 5.66189 21.8975 5.89142 21.7752 6.11431C21.7157 6.22408 21.6562 6.33386 21.61 6.44697C20.0669 9.86671 18.8774 13.0303 17.9918 16.0475C16.9973 16.959 14.2052 18.3396 12.0838 18.7487C11.9847 18.7587 11.8823 18.7753 11.7765 18.7887C11.5552 18.8186 11.3239 18.8519 11.1124 18.8519C10.6234 18.8186 10.2533 18.6456 10.0451 18.3462C9.82704 18.0368 9.78408 17.6077 9.92286 17.1054C10.0716 16.5499 10.359 16.1207 10.782 15.8247C10.8745 15.7548 10.9274 15.675 10.9373 15.5951C10.9472 15.5186 10.9207 15.4388 10.8547 15.3556C10.8051 15.3024 10.7456 15.2791 10.6795 15.2791C10.5573 15.2791 10.4449 15.3722 10.3954 15.4221C10.1178 15.6118 9.88982 15.838 9.71139 16.0974C8.42604 16.1141 7.66606 16.0276 6.94573 15.5419C6.0635 14.9498 6.01063 14.3044 5.9875 14.025C5.97429 13.8852 5.95446 13.6723 5.74629 13.6224C5.53482 13.5559 5.39935 13.7222 5.29031 13.8553L5.27048 13.8786C3.11611 16.623 1.25251 18.6822 0.720529 18.9117C0.710616 18.9117 0.704007 18.9084 0.704007 18.9117C0.684182 18.8918 0.518969 18.6756 0.84609 16.8492C0.915479 16.46 1.07408 15.828 1.42103 15.0196C1.43425 14.9897 1.44085 14.9764 1.44416 14.9631C1.49703 14.8134 1.42103 14.6504 1.27234 14.5938C1.19964 14.5672 1.12034 14.5705 1.05095 14.6005C0.981564 14.6337 0.925392 14.6903 0.898958 14.7635L0.89235 14.7834C0.889045 14.7967 0.879133 14.82 0.86922 14.85C0.776701 15.1061 0.499144 15.8779 0.284368 16.6962C-0.0923166 18.1499 -0.0724911 19.0215 0.34054 19.3608C0.439667 19.4473 0.571837 19.4939 0.710616 19.4939H0.796526C1.59615 19.3908 2.90794 17.8273 5.48195 14.5439C5.64716 15.1261 6.03046 15.6251 6.62522 16.0276C7.42815 16.5632 8.25752 16.6663 9.41401 16.6696C9.30497 16.969 9.24219 17.2983 9.22897 17.6576C9.19593 18.3662 9.61887 18.9683 10.3656 19.271C10.6002 19.3775 10.8414 19.4274 11.1124 19.4274C11.1917 19.4274 11.271 19.424 11.3536 19.4141C11.988 19.4141 12.6257 19.2344 13.2469 19.0614C14.4695 18.6988 16.5644 17.9304 17.6912 17.1054C17.5722 17.5379 17.4599 17.967 17.3574 18.3928C17.2352 18.9483 17.1393 19.5272 17.0468 20.0894L17.0072 20.3289C16.9312 21.0374 17.0997 21.6728 17.5028 22.2117L17.5061 22.2151C17.5656 22.2783 17.7011 22.3415 17.7936 22.3415C17.8167 22.3415 17.8332 22.3381 17.8498 22.3282C17.9191 22.3115 17.972 22.2616 17.9984 22.1951C18.0282 22.1186 18.0183 22.0288 17.9753 21.9622C17.4103 21.1273 17.5325 20.2058 17.7011 19.4906Z" fill="black" stroke="black" stroke-width="0.1" stroke-miterlimit="10"/>
<path d="M42.5192 14.4241C42.5952 14.4641 42.6679 14.494 42.7373 14.494C42.7934 14.494 42.8496 14.474 42.9058 14.4175L43.0875 14.0948L43.0908 14.0782C43.0908 14.0382 43.0479 14.0116 42.9719 13.9584C42.9454 13.9418 42.919 13.9218 42.9058 13.9118L42.8959 13.9019H42.8827C42.6646 13.9019 42.5423 13.9784 42.4696 14.168V14.1713C42.4399 14.2645 42.4168 14.3742 42.5192 14.4241Z" fill="black" stroke="black" stroke-width="0.1" stroke-miterlimit="10"/>
<path d="M63.9474 16.0541C63.8945 15.9909 63.8053 15.9776 63.7425 15.9776C62.9594 15.9111 62.2094 16.1207 61.489 16.3203L61.3271 16.3635C59.7907 16.7827 58.2641 17.3548 56.7904 17.907L55.8883 18.2231C55.8289 18.2364 55.7826 18.2264 55.7463 18.1965C55.7 18.1565 55.6835 18.0933 55.6835 18.0468C55.6835 17.9037 55.733 17.784 55.7892 17.6409C55.7991 17.6176 55.809 17.591 55.8189 17.5644C55.8553 17.4347 55.8982 17.3049 55.9379 17.1752C56.0535 16.8093 56.1758 16.43 56.2022 16.0076C56.2022 15.798 56.1329 15.635 56.0073 15.5452C55.885 15.4587 55.7198 15.4487 55.5282 15.5185C55.3497 15.5884 55.1812 15.6716 55.016 15.7481C54.8541 15.8246 54.6889 15.9044 54.5105 15.9776C53.8959 16.287 53.2615 16.6063 52.5742 16.7095C52.5081 16.7095 52.4156 16.6762 52.3891 16.6496C52.3429 16.603 52.3429 16.5564 52.3495 16.5265C52.3627 16.4799 52.399 16.4367 52.4486 16.4234C52.8187 16.2537 52.9905 15.9543 52.9905 15.4786C52.9905 15.3456 52.898 15.2358 52.7625 15.2025C52.6799 15.1626 52.561 15.1992 52.518 15.2424C52.0752 15.5917 51.8241 16.0541 51.7052 16.7394C51.6853 16.8758 51.7349 17.0255 51.834 17.1419C51.9232 17.2451 52.0389 17.3049 52.1578 17.3049C52.3991 17.3049 52.6502 17.3049 52.9013 17.2351C53.1623 17.1453 53.43 17.0388 53.6877 16.9357C53.9454 16.8326 54.2098 16.7261 54.4708 16.6396C54.5931 16.603 54.7087 16.5398 54.8178 16.4799C55.0226 16.3668 55.2341 16.2537 55.5084 16.287C55.5249 16.6629 55.4026 16.9922 55.2737 17.3382C55.2077 17.5178 55.1383 17.7041 55.092 17.8971C54.8971 18.5191 54.56 18.8784 53.9983 19.068C53.5159 19.2177 53.0929 19.4207 52.6436 19.6336C52.5709 19.6668 52.4982 19.7034 52.4222 19.7367C51.0278 20.4087 49.8746 21.084 48.8668 21.8258C48.3976 21.0274 48.5066 20.1658 48.6686 19.4905L48.6719 19.4672C48.7412 19.1312 48.8106 18.7819 48.9131 18.4393C49.7358 14.9996 50.9617 11.49 52.8881 7.06898C52.9938 6.83612 53.1128 6.61324 53.2284 6.39701C53.3044 6.25396 53.3771 6.1209 53.4465 5.98118C53.6712 5.41566 53.995 5.19943 54.527 5.26596C54.6922 5.28925 54.8574 5.2826 55.0226 5.27262C55.1019 5.26929 55.1845 5.26596 55.2638 5.26596C57.4248 5.26596 59.6585 5.26596 61.8558 5.30256C62.2127 5.30256 62.52 5.30256 62.8306 5.26596C62.9925 5.26596 63.1114 5.18945 63.1412 5.05639C63.1412 4.85014 63.0123 4.77695 62.9033 4.77695L62.8107 4.76697C62.4638 4.73371 62.1367 4.70377 61.7831 4.70377H55.059C54.9929 4.69379 54.9301 4.69711 54.8607 4.70044C54.6625 4.71042 54.4543 4.71375 54.256 4.45427C55.0524 3.02383 55.7694 1.97928 56.5789 1.07445C56.7739 0.84491 56.9292 0.911442 57.1638 1.01124C57.1968 1.03785 57.2497 1.0312 57.2926 1.02455C57.3323 1.01457 57.3885 0.997934 57.4149 0.971321C57.5041 0.881503 57.5471 0.715173 57.5372 0.525557C57.5272 0.342593 57.4645 0.186243 57.3786 0.113058C57.2133 -0.0200061 56.9986 -0.0200061 56.7772 0.116385C56.6979 0.196223 56.6186 0.272735 56.5393 0.352573C56.2948 0.592088 56.0436 0.838257 55.8355 1.10106C55.0424 2.04914 54.3981 3.0072 53.9124 3.95196C53.6282 4.49419 53.2549 4.70709 52.5808 4.70709C51.7679 4.68381 50.9386 4.69379 50.1389 4.70044C49.7391 4.70377 49.3261 4.70709 48.9164 4.70709C48.4042 4.73371 47.6475 4.81022 47.0164 5.16949L47.0065 5.17614C46.871 5.27927 46.7323 5.38239 46.6298 5.48885C46.5737 5.5454 46.6298 5.68179 46.6563 5.73169C46.6629 5.78159 46.7091 5.82483 46.7587 5.82483C46.9008 5.82483 47.0131 5.82483 47.1222 5.75165C47.783 5.41899 48.5331 5.26264 49.4781 5.26264H52.4057C52.4354 5.26264 52.4684 5.26264 52.4982 5.26264C52.67 5.25931 52.8352 5.25266 53.0004 5.38572C52.9938 5.65518 52.8716 5.88804 52.7493 6.11092C52.6898 6.2207 52.6303 6.33047 52.5841 6.44691C51.041 9.86665 49.8515 13.0303 48.9659 16.0475C47.9747 16.959 45.1826 18.3395 43.0579 18.7487C42.9588 18.7587 42.8564 18.7753 42.7506 18.7886C42.5293 18.8185 42.298 18.8518 42.0865 18.8518C41.5975 18.8185 41.2274 18.6456 41.0192 18.3462C40.8011 18.0368 40.7582 17.6077 40.897 17.1053C41.0423 16.5498 41.3331 16.1207 41.7561 15.8246C41.8486 15.7547 41.9014 15.6749 41.9147 15.5951C41.9246 15.5185 41.8981 15.4387 41.8288 15.3555C41.7792 15.3023 41.7197 15.279 41.6536 15.279C41.5281 15.279 41.419 15.3722 41.3695 15.4221C41.0456 15.645 40.7912 15.9177 40.6029 16.2371C39.5191 17.4846 38.3031 18.4859 36.9418 19.567C36.1554 20.1525 35.0947 20.871 33.849 21.2104C32.5207 21.5996 31.6847 21.2137 31.1329 19.9662C30.7232 19.0447 30.5679 18.0468 30.6472 16.8226C30.6835 16.4433 30.7992 16.1439 31.0239 15.8579C32.0779 14.484 33.056 13.14 34.0935 11.7162L34.4768 11.1873C35.5705 9.70365 36.4527 8.21333 37.0971 6.75628C37.3152 6.26394 37.5101 5.74832 37.7017 5.25266C37.7579 5.10961 37.8108 4.96657 37.867 4.82352C38.0256 4.34782 38.0718 3.8954 38.009 3.47292C37.9397 3.05045 37.6158 2.8076 37.1698 2.84752C36.7105 2.92404 36.3437 3.21012 36.1058 3.41637C35.4747 3.96194 34.9064 4.66717 34.3182 5.63522C32.6826 8.3098 31.4501 11.0509 30.6538 13.7887C30.4093 14.6237 30.2474 15.3722 30.1548 16.0941C29.9665 16.1805 29.7782 16.267 29.5931 16.3535C29.071 16.5964 28.5787 16.8259 28.0765 17.0421C26.8902 17.5345 25.6313 17.6775 24.3361 17.4646L24.3063 17.458L24.2865 17.438C23.9528 17.3715 23.5926 17.2916 23.3613 16.9922C23.2258 16.8093 23.2952 16.6396 23.3712 16.47L23.358 16.4566C23.3977 16.3668 23.4373 16.277 23.4472 16.1839V16.0807C23.4637 15.7747 23.391 15.5385 23.2324 15.3888C23.0804 15.2424 22.8458 15.1859 22.5584 15.2192C21.5208 15.3888 20.7377 15.9876 20.2355 16.9989C20.1793 17.0987 20.1793 17.2085 20.2355 17.295C20.3016 17.3948 20.4271 17.448 20.5659 17.4313C20.7774 17.4313 20.9426 17.3515 21.1144 17.265C21.1937 17.2251 21.2763 17.1852 21.3655 17.1519C21.4845 17.0987 21.6034 17.0288 21.729 16.959C22.0033 16.8026 22.2874 16.6396 22.6278 16.5897L22.6443 16.5864L22.6476 16.603C22.7071 17.3182 23.1333 17.7141 24.0288 17.8871C24.6632 18.0368 25.2513 18.0933 25.8395 18.0634C27.4487 17.9237 28.8364 17.3116 30.0987 16.6429C30.0755 16.9457 30.0623 17.2484 30.0623 17.5544C30.0623 18.6156 30.287 19.5903 30.7298 20.4486C31.2651 21.4432 32.0151 21.9322 33.0097 21.9322C33.2674 21.9322 33.5417 21.899 33.8358 21.8324C34.4801 21.6794 35.1806 21.3767 35.9703 20.9176C37.3746 20.066 38.7129 18.9782 40.2295 17.4546C40.2229 17.5212 40.2163 17.5877 40.213 17.6576C40.1799 18.3661 40.6029 18.9682 41.3496 19.271C41.5842 19.3774 41.8255 19.4273 42.0964 19.4273C42.1757 19.4273 42.255 19.424 42.3376 19.414C42.972 19.414 43.6131 19.2344 44.2309 19.0614C45.4535 18.6988 47.5484 17.9303 48.6752 17.1053C48.5562 17.5378 48.4439 17.9669 48.3414 18.3927C48.2192 18.9516 48.1201 19.5404 48.0275 20.1059L47.9912 20.3288C47.9185 21.0141 48.0738 21.6295 48.4505 22.1584C48.2853 22.2882 48.1267 22.4179 47.9681 22.551C47.2477 23.1298 46.6199 23.8118 46.1474 24.5237C45.7443 25.1324 45.5031 25.688 45.4106 26.2202C45.3048 26.7658 45.3907 27.2182 45.6518 27.5276C45.9029 27.8236 46.306 27.98 46.8248 27.98C46.8512 27.98 46.881 27.98 46.9074 27.98C47.1255 27.98 47.3435 27.9434 47.5088 27.9101C48.1035 27.7538 48.6586 27.471 49.2633 27.0286C50.3306 26.2668 51.2657 25.3686 52.1281 24.2841C53.2218 22.9635 54.0677 21.6062 54.7153 20.1325C55.0391 19.4073 55.4588 19.0181 56.1626 18.7819C56.5921 18.6223 57.0283 18.4559 57.4479 18.2963C59.4602 17.5278 61.5419 16.7328 63.7624 16.4999C63.954 16.4334 63.9937 16.3136 63.9937 16.2304C63.9937 16.1573 63.9837 16.0974 63.9474 16.0541ZM22.7698 15.778L21.4779 16.5165C21.4515 16.5265 21.4283 16.5332 21.4085 16.5431C21.3722 16.5564 21.349 16.5664 21.3325 16.5664C21.3226 16.5664 21.316 16.5631 21.3094 16.5564C21.2962 16.5398 21.3061 16.5165 21.3523 16.4566L21.3986 16.4101C21.7356 16.0708 22.0528 15.7481 22.7599 15.7481H22.8227L22.7698 15.778ZM45.9161 26.513C45.9822 26.014 46.1805 25.525 46.5043 25.0526C47.0263 24.1943 47.7202 23.4292 48.6223 22.7073C50.053 21.5863 51.7514 20.6249 53.8067 19.7633C53.8992 19.7334 54.028 19.73 54.2659 19.73C52.8583 22.6308 51.2723 24.7099 49.2765 26.2735C48.8734 26.6161 48.424 26.8988 47.8194 27.1816C47.4394 27.3546 47.0627 27.4245 46.6497 27.3879C46.4051 27.3712 46.2069 27.2814 46.0813 27.1284C45.9558 26.9754 45.8996 26.7625 45.9161 26.513ZM31.1659 14.0914C31.1792 14.0449 31.1891 13.995 31.199 13.9484C32.1242 10.9378 33.4029 8.12684 34.9956 5.60195C35.369 5.03643 35.7952 4.44097 36.3834 3.92534C36.6113 3.72907 36.8228 3.54611 37.1004 3.47625C37.1268 3.4696 37.1532 3.4696 37.1764 3.4696C37.2986 3.4696 37.3845 3.53613 37.4077 3.66254C37.4671 4.00185 37.4242 4.34449 37.2689 4.73371C37.1731 4.96324 37.0839 5.1961 36.9946 5.42564C36.7865 5.95457 36.5717 6.49681 36.3305 7.01243C35.7754 8.1967 35.1079 9.32774 34.3446 10.3789C33.8886 11.0143 33.4194 11.6497 32.9602 12.2651C32.5075 12.8739 32.0383 13.506 31.5889 14.1347C31.5691 14.158 31.5525 14.1846 31.5327 14.2079C31.427 14.3476 31.3312 14.4707 31.1792 14.5039C31.0966 14.3576 31.1296 14.2345 31.1659 14.0914Z" fill="black" stroke="black" stroke-width="0.1" stroke-miterlimit="10"/>
</g>
<defs>
<clipPath id="clip0">
<rect width="64" height="28" fill="white"/>
</clipPath>
</defs>
</svg>
